ISO-10303-21;
HEADER;
/* Generated by software containing ST-Developer
 * from STEP Tools, Inc. (www.steptools.com) 
 */

FILE_DESCRIPTION(
/* description */ ('STEP AP203'),
/* implementation_level */ '2;1');

FILE_NAME(
/* name */ 'Lid_Back_SensorBox.step',
/* time_stamp */ '2025-12-06T00:58:21+01:00',
/* author */ (''),
/* organization */ (''),
/* preprocessor_version */ 'ST-DEVELOPER v20.1',
/* originating_system */ 'Autodesk Translation Framework v14.21.0.0',
/* authorisation */ '');

FILE_SCHEMA (('AUTOMOTIVE_DESIGN { 1 0 10303 214 3 1 1 }'));
ENDSEC;

DATA;
#10=MECHANICAL_DESIGN_GEOMETRIC_PRESENTATION_REPRESENTATION('',(#21),#1564);
#11=ITEM_DEFINED_TRANSFORMATION($,$,#930,#1027);
#12=ITEM_DEFINED_TRANSFORMATION($,$,#931,#1028);
#13=(
REPRESENTATION_RELATIONSHIP($,$,#1578,#1577)
REPRESENTATION_RELATIONSHIP_WITH_TRANSFORMATION(#11)
SHAPE_REPRESENTATION_RELATIONSHIP()
);
#14=(
REPRESENTATION_RELATIONSHIP($,$,#1579,#1577)
REPRESENTATION_RELATIONSHIP_WITH_TRANSFORMATION(#12)
SHAPE_REPRESENTATION_RELATIONSHIP()
);
#15=CONTEXT_DEPENDENT_SHAPE_REPRESENTATION(#13,#1575);
#16=CONTEXT_DEPENDENT_SHAPE_REPRESENTATION(#14,#1576);
#17=NEXT_ASSEMBLY_USAGE_OCCURRENCE('Base_Plate_v2 v9:1',
'Base_Plate_v2 v9:1','Base_Plate_v2 v9:1',#1581,#1582,
'Base_Plate_v2 v9:1');
#18=NEXT_ASSEMBLY_USAGE_OCCURRENCE('Back_SensorBoxLid v1:1',
'Back_SensorBoxLid v1:1','Back_SensorBoxLid v1:1',#1581,#1583,
'Back_SensorBoxLid v1:1');
#19=SHAPE_REPRESENTATION_RELATIONSHIP('SRR','None',#1579,#20);
#20=ADVANCED_BREP_SHAPE_REPRESENTATION('',(#22),#1563);
#21=STYLED_ITEM('',(#1597),#22);
#22=MANIFOLD_SOLID_BREP('Body1',#916);
#23=FACE_BOUND('',#145,.T.);
#24=FACE_BOUND('',#148,.T.);
#25=FACE_BOUND('',#151,.T.);
#26=FACE_BOUND('',#157,.T.);
#27=FACE_BOUND('',#162,.T.);
#28=FACE_BOUND('',#164,.T.);
#29=FACE_BOUND('',#165,.T.);
#30=FACE_BOUND('',#166,.T.);
#31=FACE_BOUND('',#167,.T.);
#32=FACE_BOUND('',#168,.T.);
#33=FACE_BOUND('',#169,.T.);
#34=FACE_BOUND('',#170,.T.);
#35=FACE_BOUND('',#171,.T.);
#36=FACE_BOUND('',#172,.T.);
#37=FACE_BOUND('',#173,.T.);
#38=FACE_BOUND('',#174,.T.);
#39=FACE_BOUND('',#175,.T.);
#40=FACE_BOUND('',#176,.T.);
#41=FACE_BOUND('',#180,.T.);
#42=FACE_BOUND('',#185,.T.);
#43=FACE_BOUND('',#190,.T.);
#44=FACE_BOUND('',#211,.T.);
#45=FACE_BOUND('',#212,.T.);
#46=FACE_BOUND('',#213,.T.);
#47=FACE_BOUND('',#214,.T.);
#48=FACE_BOUND('',#215,.T.);
#49=FACE_BOUND('',#216,.T.);
#50=FACE_BOUND('',#217,.T.);
#51=FACE_BOUND('',#218,.T.);
#52=FACE_BOUND('',#219,.T.);
#53=PLANE('',#950);
#54=PLANE('',#955);
#55=PLANE('',#960);
#56=PLANE('',#971);
#57=PLANE('',#981);
#58=PLANE('',#982);
#59=PLANE('',#991);
#60=PLANE('',#992);
#61=PLANE('',#998);
#62=PLANE('',#999);
#63=PLANE('',#1005);
#64=PLANE('',#1006);
#65=PLANE('',#1007);
#66=PLANE('',#1008);
#67=PLANE('',#1009);
#68=PLANE('',#1010);
#69=PLANE('',#1011);
#70=PLANE('',#1012);
#71=PLANE('',#1013);
#72=PLANE('',#1014);
#73=PLANE('',#1015);
#74=PLANE('',#1016);
#75=PLANE('',#1017);
#76=PLANE('',#1018);
#77=PLANE('',#1019);
#78=PLANE('',#1020);
#79=PLANE('',#1021);
#80=PLANE('',#1022);
#81=PLANE('',#1023);
#82=PLANE('',#1024);
#83=PLANE('',#1025);
#84=PLANE('',#1026);
#85=FACE_OUTER_BOUND('',#138,.T.);
#86=FACE_OUTER_BOUND('',#139,.T.);
#87=FACE_OUTER_BOUND('',#140,.T.);
#88=FACE_OUTER_BOUND('',#141,.T.);
#89=FACE_OUTER_BOUND('',#142,.T.);
#90=FACE_OUTER_BOUND('',#143,.T.);
#91=FACE_OUTER_BOUND('',#144,.T.);
#92=FACE_OUTER_BOUND('',#146,.T.);
#93=FACE_OUTER_BOUND('',#147,.T.);
#94=FACE_OUTER_BOUND('',#149,.T.);
#95=FACE_OUTER_BOUND('',#150,.T.);
#96=FACE_OUTER_BOUND('',#152,.T.);
#97=FACE_OUTER_BOUND('',#153,.T.);
#98=FACE_OUTER_BOUND('',#154,.T.);
#99=FACE_OUTER_BOUND('',#155,.T.);
#100=FACE_OUTER_BOUND('',#156,.T.);
#101=FACE_OUTER_BOUND('',#158,.T.);
#102=FACE_OUTER_BOUND('',#159,.T.);
#103=FACE_OUTER_BOUND('',#160,.T.);
#104=FACE_OUTER_BOUND('',#161,.T.);
#105=FACE_OUTER_BOUND('',#163,.T.);
#106=FACE_OUTER_BOUND('',#177,.T.);
#107=FACE_OUTER_BOUND('',#178,.T.);
#108=FACE_OUTER_BOUND('',#179,.T.);
#109=FACE_OUTER_BOUND('',#181,.T.);
#110=FACE_OUTER_BOUND('',#182,.T.);
#111=FACE_OUTER_BOUND('',#183,.T.);
#112=FACE_OUTER_BOUND('',#184,.T.);
#113=FACE_OUTER_BOUND('',#186,.T.);
#114=FACE_OUTER_BOUND('',#187,.T.);
#115=FACE_OUTER_BOUND('',#188,.T.);
#116=FACE_OUTER_BOUND('',#189,.T.);
#117=FACE_OUTER_BOUND('',#191,.T.);
#118=FACE_OUTER_BOUND('',#192,.T.);
#119=FACE_OUTER_BOUND('',#193,.T.);
#120=FACE_OUTER_BOUND('',#194,.T.);
#121=FACE_OUTER_BOUND('',#195,.T.);
#122=FACE_OUTER_BOUND('',#196,.T.);
#123=FACE_OUTER_BOUND('',#197,.T.);
#124=FACE_OUTER_BOUND('',#198,.T.);
#125=FACE_OUTER_BOUND('',#199,.T.);
#126=FACE_OUTER_BOUND('',#200,.T.);
#127=FACE_OUTER_BOUND('',#201,.T.);
#128=FACE_OUTER_BOUND('',#202,.T.);
#129=FACE_OUTER_BOUND('',#203,.T.);
#130=FACE_OUTER_BOUND('',#204,.T.);
#131=FACE_OUTER_BOUND('',#205,.T.);
#132=FACE_OUTER_BOUND('',#206,.T.);
#133=FACE_OUTER_BOUND('',#207,.T.);
#134=FACE_OUTER_BOUND('',#208,.T.);
#135=FACE_OUTER_BOUND('',#209,.T.);
#136=FACE_OUTER_BOUND('',#210,.T.);
#137=FACE_OUTER_BOUND('',#220,.T.);
#138=EDGE_LOOP('',(#608,#609,#610,#611));
#139=EDGE_LOOP('',(#612,#613,#614,#615));
#140=EDGE_LOOP('',(#616,#617,#618,#619));
#141=EDGE_LOOP('',(#620,#621,#622,#623));
#142=EDGE_LOOP('',(#624,#625,#626,#627));
#143=EDGE_LOOP('',(#628,#629,#630,#631));
#144=EDGE_LOOP('',(#632));
#145=EDGE_LOOP('',(#633));
#146=EDGE_LOOP('',(#634,#635,#636,#637));
#147=EDGE_LOOP('',(#638));
#148=EDGE_LOOP('',(#639));
#149=EDGE_LOOP('',(#640,#641,#642,#643));
#150=EDGE_LOOP('',(#644));
#151=EDGE_LOOP('',(#645));
#152=EDGE_LOOP('',(#646,#647,#648,#649));
#153=EDGE_LOOP('',(#650,#651,#652,#653));
#154=EDGE_LOOP('',(#654,#655,#656,#657));
#155=EDGE_LOOP('',(#658,#659,#660,#661));
#156=EDGE_LOOP('',(#662));
#157=EDGE_LOOP('',(#663));
#158=EDGE_LOOP('',(#664,#665,#666,#667));
#159=EDGE_LOOP('',(#668,#669,#670,#671));
#160=EDGE_LOOP('',(#672,#673,#674,#675));
#161=EDGE_LOOP('',(#676));
#162=EDGE_LOOP('',(#677));
#163=EDGE_LOOP('',(#678,#679,#680,#681,#682,#683,#684,#685,#686,#687));
#164=EDGE_LOOP('',(#688));
#165=EDGE_LOOP('',(#689));
#166=EDGE_LOOP('',(#690));
#167=EDGE_LOOP('',(#691));
#168=EDGE_LOOP('',(#692));
#169=EDGE_LOOP('',(#693));
#170=EDGE_LOOP('',(#694));
#171=EDGE_LOOP('',(#695));
#172=EDGE_LOOP('',(#696));
#173=EDGE_LOOP('',(#697));
#174=EDGE_LOOP('',(#698));
#175=EDGE_LOOP('',(#699));
#176=EDGE_LOOP('',(#700));
#177=EDGE_LOOP('',(#701,#702,#703,#704));
#178=EDGE_LOOP('',(#705,#706,#707,#708));
#179=EDGE_LOOP('',(#709));
#180=EDGE_LOOP('',(#710));
#181=EDGE_LOOP('',(#711));
#182=EDGE_LOOP('',(#712,#713,#714,#715));
#183=EDGE_LOOP('',(#716,#717,#718,#719));
#184=EDGE_LOOP('',(#720));
#185=EDGE_LOOP('',(#721));
#186=EDGE_LOOP('',(#722));
#187=EDGE_LOOP('',(#723,#724,#725,#726));
#188=EDGE_LOOP('',(#727,#728,#729,#730));
#189=EDGE_LOOP('',(#731));
#190=EDGE_LOOP('',(#732));
#191=EDGE_LOOP('',(#733));
#192=EDGE_LOOP('',(#734,#735,#736,#737));
#193=EDGE_LOOP('',(#738,#739,#740,#741));
#194=EDGE_LOOP('',(#742,#743,#744,#745));
#195=EDGE_LOOP('',(#746,#747,#748,#749));
#196=EDGE_LOOP('',(#750,#751,#752,#753));
#197=EDGE_LOOP('',(#754,#755,#756,#757));
#198=EDGE_LOOP('',(#758,#759,#760,#761));
#199=EDGE_LOOP('',(#762,#763,#764,#765,#766,#767,#768,#769,#770,#771,#772,
#773));
#200=EDGE_LOOP('',(#774,#775,#776,#777));
#201=EDGE_LOOP('',(#778,#779,#780,#781,#782,#783));
#202=EDGE_LOOP('',(#784,#785,#786,#787));
#203=EDGE_LOOP('',(#788,#789,#790,#791));
#204=EDGE_LOOP('',(#792,#793,#794,#795));
#205=EDGE_LOOP('',(#796,#797,#798,#799,#800,#801));
#206=EDGE_LOOP('',(#802,#803,#804,#805));
#207=EDGE_LOOP('',(#806,#807,#808,#809));
#208=EDGE_LOOP('',(#810,#811,#812,#813));
#209=EDGE_LOOP('',(#814,#815,#816,#817));
#210=EDGE_LOOP('',(#818,#819,#820,#821,#822,#823,#824,#825,#826,#827,#828,
#829,#830,#831));
#211=EDGE_LOOP('',(#832));
#212=EDGE_LOOP('',(#833));
#213=EDGE_LOOP('',(#834));
#214=EDGE_LOOP('',(#835));
#215=EDGE_LOOP('',(#836));
#216=EDGE_LOOP('',(#837));
#217=EDGE_LOOP('',(#838));
#218=EDGE_LOOP('',(#839));
#219=EDGE_LOOP('',(#840));
#220=EDGE_LOOP('',(#841));
#221=LINE('',#1311,#296);
#222=LINE('',#1317,#297);
#223=LINE('',#1323,#298);
#224=LINE('',#1329,#299);
#225=LINE('',#1335,#300);
#226=LINE('',#1341,#301);
#227=LINE('',#1350,#302);
#228=LINE('',#1359,#303);
#229=LINE('',#1367,#304);
#230=LINE('',#1371,#305);
#231=LINE('',#1375,#306);
#232=LINE('',#1380,#307);
#233=LINE('',#1388,#308);
#234=LINE('',#1393,#309);
#235=LINE('',#1399,#310);
#236=LINE('',#1405,#311);
#237=LINE('',#1407,#312);
#238=LINE('',#1409,#313);
#239=LINE('',#1411,#314);
#240=LINE('',#1413,#315);
#241=LINE('',#1415,#316);
#242=LINE('',#1417,#317);
#243=LINE('',#1419,#318);
#244=LINE('',#1421,#319);
#245=LINE('',#1422,#320);
#246=LINE('',#1433,#321);
#247=LINE('',#1438,#322);
#248=LINE('',#1445,#323);
#249=LINE('',#1450,#324);
#250=LINE('',#1457,#325);
#251=LINE('',#1462,#326);
#252=LINE('',#1468,#327);
#253=LINE('',#1470,#328);
#254=LINE('',#1472,#329);
#255=LINE('',#1473,#330);
#256=LINE('',#1476,#331);
#257=LINE('',#1478,#332);
#258=LINE('',#1479,#333);
#259=LINE('',#1482,#334);
#260=LINE('',#1484,#335);
#261=LINE('',#1485,#336);
#262=LINE('',#1488,#337);
#263=LINE('',#1490,#338);
#264=LINE('',#1491,#339);
#265=LINE('',#1494,#340);
#266=LINE('',#1496,#341);
#267=LINE('',#1497,#342);
#268=LINE('',#1500,#343);
#269=LINE('',#1502,#344);
#270=LINE('',#1503,#345);
#271=LINE('',#1506,#346);
#272=LINE('',#1508,#347);
#273=LINE('',#1509,#348);
#274=LINE('',#1512,#349);
#275=LINE('',#1514,#350);
#276=LINE('',#1516,#351);
#277=LINE('',#1518,#352);
#278=LINE('',#1519,#353);
#279=LINE('',#1522,#354);
#280=LINE('',#1524,#355);
#281=LINE('',#1525,#356);
#282=LINE('',#1527,#357);
#283=LINE('',#1528,#358);
#284=LINE('',#1530,#359);
#285=LINE('',#1532,#360);
#286=LINE('',#1534,#361);
#287=LINE('',#1537,#362);
#288=LINE('',#1538,#363);
#289=LINE('',#1541,#364);
#290=LINE('',#1542,#365);
#291=LINE('',#1545,#366);
#292=LINE('',#1546,#367);
#293=LINE('',#1549,#368);
#294=LINE('',#1550,#369);
#295=LINE('',#1552,#370);
#296=VECTOR('',#1039,1.75);
#297=VECTOR('',#1046,1.75);
#298=VECTOR('',#1053,1.75);
#299=VECTOR('',#1060,1.75);
#300=VECTOR('',#1067,1.75);
#301=VECTOR('',#1074,1.82499999999999);
#302=VECTOR('',#1085,1.82499999999998);
#303=VECTOR('',#1096,1.825);
#304=VECTOR('',#1107,0.949999999999998);
#305=VECTOR('',#1112,0.950000000000024);
#306=VECTOR('',#1117,0.950000000000006);
#307=VECTOR('',#1122,1.82500000000001);
#308=VECTOR('',#1133,0.949999999999989);
#309=VECTOR('',#1138,1.75000000000002);
#310=VECTOR('',#1145,2.75000000000001);
#311=VECTOR('',#1152,10.);
#312=VECTOR('',#1153,10.);
#313=VECTOR('',#1154,10.);
#314=VECTOR('',#1155,10.);
#315=VECTOR('',#1156,10.);
#316=VECTOR('',#1157,10.);
#317=VECTOR('',#1158,10.);
#318=VECTOR('',#1159,10.);
#319=VECTOR('',#1160,10.);
#320=VECTOR('',#1161,10.);
#321=VECTOR('',#1172,1.75);
#322=VECTOR('',#1179,2.75);
#323=VECTOR('',#1188,1.75000000000002);
#324=VECTOR('',#1195,2.75);
#325=VECTOR('',#1204,1.74999999999998);
#326=VECTOR('',#1211,2.74999999999999);
#327=VECTOR('',#1218,10.);
#328=VECTOR('',#1219,10.);
#329=VECTOR('',#1220,10.);
#330=VECTOR('',#1221,10.);
#331=VECTOR('',#1224,10.);
#332=VECTOR('',#1225,10.);
#333=VECTOR('',#1226,10.);
#334=VECTOR('',#1229,10.);
#335=VECTOR('',#1230,10.);
#336=VECTOR('',#1231,10.);
#337=VECTOR('',#1234,10.);
#338=VECTOR('',#1235,10.);
#339=VECTOR('',#1236,10.);
#340=VECTOR('',#1239,10.);
#341=VECTOR('',#1240,10.);
#342=VECTOR('',#1241,10.);
#343=VECTOR('',#1244,10.);
#344=VECTOR('',#1245,10.);
#345=VECTOR('',#1246,10.);
#346=VECTOR('',#1249,9.99999999999999);
#347=VECTOR('',#1250,10.);
#348=VECTOR('',#1251,9.99999999999999);
#349=VECTOR('',#1254,10.);
#350=VECTOR('',#1255,10.);
#351=VECTOR('',#1256,10.);
#352=VECTOR('',#1257,10.);
#353=VECTOR('',#1258,10.);
#354=VECTOR('',#1261,10.);
#355=VECTOR('',#1262,10.);
#356=VECTOR('',#1263,10.);
#357=VECTOR('',#1266,10.);
#358=VECTOR('',#1267,10.);
#359=VECTOR('',#1270,10.);
#360=VECTOR('',#1273,10.);
#361=VECTOR('',#1276,10.);
#362=VECTOR('',#1279,10.);
#363=VECTOR('',#1280,10.);
#364=VECTOR('',#1283,10.);
#365=VECTOR('',#1284,10.);
#366=VECTOR('',#1287,10.);
#367=VECTOR('',#1288,10.);
#368=VECTOR('',#1291,10.);
#369=VECTOR('',#1292,10.);
#370=VECTOR('',#1295,10.);
#371=CIRCLE('',#933,1.75);
#372=CIRCLE('',#934,1.75);
#373=CIRCLE('',#936,1.75);
#374=CIRCLE('',#937,1.75);
#375=CIRCLE('',#939,1.75);
#376=CIRCLE('',#940,1.75);
#377=CIRCLE('',#942,1.75);
#378=CIRCLE('',#943,1.75);
#379=CIRCLE('',#945,1.75);
#380=CIRCLE('',#946,1.75);
#381=CIRCLE('',#948,1.82499999999999);
#382=CIRCLE('',#949,1.82499999999999);
#383=CIRCLE('',#951,0.950000000000024);
#384=CIRCLE('',#953,1.82499999999998);
#385=CIRCLE('',#954,1.82499999999998);
#386=CIRCLE('',#956,0.949999999999998);
#387=CIRCLE('',#958,1.825);
#388=CIRCLE('',#959,1.825);
#389=CIRCLE('',#961,0.950000000000006);
#390=CIRCLE('',#963,0.949999999999998);
#391=CIRCLE('',#965,0.950000000000024);
#392=CIRCLE('',#967,0.950000000000006);
#393=CIRCLE('',#969,1.82500000000001);
#394=CIRCLE('',#970,1.82500000000001);
#395=CIRCLE('',#972,0.949999999999989);
#396=CIRCLE('',#974,0.949999999999989);
#397=CIRCLE('',#976,1.75000000000002);
#398=CIRCLE('',#977,1.75000000000002);
#399=CIRCLE('',#979,2.75000000000001);
#400=CIRCLE('',#980,2.75000000000001);
#401=CIRCLE('',#983,2.75);
#402=CIRCLE('',#984,2.74999999999999);
#403=CIRCLE('',#985,2.75);
#404=CIRCLE('',#987,1.75);
#405=CIRCLE('',#988,1.75);
#406=CIRCLE('',#990,2.75);
#407=CIRCLE('',#994,1.75000000000002);
#408=CIRCLE('',#995,1.75000000000002);
#409=CIRCLE('',#997,2.75);
#410=CIRCLE('',#1001,1.74999999999998);
#411=CIRCLE('',#1002,1.74999999999998);
#412=CIRCLE('',#1004,2.74999999999999);
#413=VERTEX_POINT('',#1308);
#414=VERTEX_POINT('',#1310);
#415=VERTEX_POINT('',#1314);
#416=VERTEX_POINT('',#1316);
#417=VERTEX_POINT('',#1320);
#418=VERTEX_POINT('',#1322);
#419=VERTEX_POINT('',#1326);
#420=VERTEX_POINT('',#1328);
#421=VERTEX_POINT('',#1332);
#422=VERTEX_POINT('',#1334);
#423=VERTEX_POINT('',#1338);
#424=VERTEX_POINT('',#1340);
#425=VERTEX_POINT('',#1344);
#426=VERTEX_POINT('',#1347);
#427=VERTEX_POINT('',#1349);
#428=VERTEX_POINT('',#1353);
#429=VERTEX_POINT('',#1356);
#430=VERTEX_POINT('',#1358);
#431=VERTEX_POINT('',#1362);
#432=VERTEX_POINT('',#1365);
#433=VERTEX_POINT('',#1369);
#434=VERTEX_POINT('',#1373);
#435=VERTEX_POINT('',#1377);
#436=VERTEX_POINT('',#1379);
#437=VERTEX_POINT('',#1383);
#438=VERTEX_POINT('',#1386);
#439=VERTEX_POINT('',#1390);
#440=VERTEX_POINT('',#1392);
#441=VERTEX_POINT('',#1396);
#442=VERTEX_POINT('',#1398);
#443=VERTEX_POINT('',#1403);
#444=VERTEX_POINT('',#1404);
#445=VERTEX_POINT('',#1406);
#446=VERTEX_POINT('',#1408);
#447=VERTEX_POINT('',#1410);
#448=VERTEX_POINT('',#1412);
#449=VERTEX_POINT('',#1414);
#450=VERTEX_POINT('',#1416);
#451=VERTEX_POINT('',#1418);
#452=VERTEX_POINT('',#1420);
#453=VERTEX_POINT('',#1423);
#454=VERTEX_POINT('',#1425);
#455=VERTEX_POINT('',#1427);
#456=VERTEX_POINT('',#1430);
#457=VERTEX_POINT('',#1432);
#458=VERTEX_POINT('',#1436);
#459=VERTEX_POINT('',#1442);
#460=VERTEX_POINT('',#1444);
#461=VERTEX_POINT('',#1448);
#462=VERTEX_POINT('',#1454);
#463=VERTEX_POINT('',#1456);
#464=VERTEX_POINT('',#1460);
#465=VERTEX_POINT('',#1466);
#466=VERTEX_POINT('',#1467);
#467=VERTEX_POINT('',#1469);
#468=VERTEX_POINT('',#1471);
#469=VERTEX_POINT('',#1475);
#470=VERTEX_POINT('',#1477);
#471=VERTEX_POINT('',#1481);
#472=VERTEX_POINT('',#1483);
#473=VERTEX_POINT('',#1487);
#474=VERTEX_POINT('',#1489);
#475=VERTEX_POINT('',#1493);
#476=VERTEX_POINT('',#1495);
#477=VERTEX_POINT('',#1499);
#478=VERTEX_POINT('',#1501);
#479=VERTEX_POINT('',#1505);
#480=VERTEX_POINT('',#1507);
#481=VERTEX_POINT('',#1511);
#482=VERTEX_POINT('',#1513);
#483=VERTEX_POINT('',#1515);
#484=VERTEX_POINT('',#1517);
#485=VERTEX_POINT('',#1521);
#486=VERTEX_POINT('',#1523);
#487=VERTEX_POINT('',#1536);
#488=VERTEX_POINT('',#1540);
#489=VERTEX_POINT('',#1544);
#490=VERTEX_POINT('',#1548);
#491=EDGE_CURVE('',#413,#413,#371,.T.);
#492=EDGE_CURVE('',#413,#414,#221,.T.);
#493=EDGE_CURVE('',#414,#414,#372,.T.);
#494=EDGE_CURVE('',#415,#415,#373,.T.);
#495=EDGE_CURVE('',#415,#416,#222,.T.);
#496=EDGE_CURVE('',#416,#416,#374,.T.);
#497=EDGE_CURVE('',#417,#417,#375,.T.);
#498=EDGE_CURVE('',#417,#418,#223,.T.);
#499=EDGE_CURVE('',#418,#418,#376,.T.);
#500=EDGE_CURVE('',#419,#419,#377,.T.);
#501=EDGE_CURVE('',#419,#420,#224,.T.);
#502=EDGE_CURVE('',#420,#420,#378,.T.);
#503=EDGE_CURVE('',#421,#421,#379,.T.);
#504=EDGE_CURVE('',#421,#422,#225,.T.);
#505=EDGE_CURVE('',#422,#422,#380,.T.);
#506=EDGE_CURVE('',#423,#423,#381,.T.);
#507=EDGE_CURVE('',#423,#424,#226,.T.);
#508=EDGE_CURVE('',#424,#424,#382,.T.);
#509=EDGE_CURVE('',#425,#425,#383,.T.);
#510=EDGE_CURVE('',#426,#426,#384,.T.);
#511=EDGE_CURVE('',#426,#427,#227,.T.);
#512=EDGE_CURVE('',#427,#427,#385,.T.);
#513=EDGE_CURVE('',#428,#428,#386,.T.);
#514=EDGE_CURVE('',#429,#429,#387,.T.);
#515=EDGE_CURVE('',#429,#430,#228,.T.);
#516=EDGE_CURVE('',#430,#430,#388,.T.);
#517=EDGE_CURVE('',#431,#431,#389,.T.);
#518=EDGE_CURVE('',#432,#432,#390,.T.);
#519=EDGE_CURVE('',#432,#428,#229,.T.);
#520=EDGE_CURVE('',#433,#433,#391,.T.);
#521=EDGE_CURVE('',#433,#425,#230,.T.);
#522=EDGE_CURVE('',#434,#434,#392,.T.);
#523=EDGE_CURVE('',#434,#431,#231,.T.);
#524=EDGE_CURVE('',#435,#435,#393,.T.);
#525=EDGE_CURVE('',#435,#436,#232,.T.);
#526=EDGE_CURVE('',#436,#436,#394,.T.);
#527=EDGE_CURVE('',#437,#437,#395,.T.);
#528=EDGE_CURVE('',#438,#438,#396,.T.);
#529=EDGE_CURVE('',#438,#437,#233,.T.);
#530=EDGE_CURVE('',#439,#439,#397,.T.);
#531=EDGE_CURVE('',#439,#440,#234,.T.);
#532=EDGE_CURVE('',#440,#440,#398,.T.);
#533=EDGE_CURVE('',#441,#441,#399,.T.);
#534=EDGE_CURVE('',#441,#442,#235,.T.);
#535=EDGE_CURVE('',#442,#442,#400,.T.);
#536=EDGE_CURVE('',#443,#444,#236,.T.);
#537=EDGE_CURVE('',#443,#445,#237,.T.);
#538=EDGE_CURVE('',#445,#446,#238,.T.);
#539=EDGE_CURVE('',#446,#447,#239,.T.);
#540=EDGE_CURVE('',#447,#448,#240,.T.);
#541=EDGE_CURVE('',#448,#449,#241,.T.);
#542=EDGE_CURVE('',#449,#450,#242,.T.);
#543=EDGE_CURVE('',#450,#451,#243,.T.);
#544=EDGE_CURVE('',#451,#452,#244,.T.);
#545=EDGE_CURVE('',#444,#452,#245,.T.);
#546=EDGE_CURVE('',#453,#453,#401,.T.);
#547=EDGE_CURVE('',#454,#454,#402,.T.);
#548=EDGE_CURVE('',#455,#455,#403,.T.);
#549=EDGE_CURVE('',#456,#456,#404,.T.);
#550=EDGE_CURVE('',#456,#457,#246,.T.);
#551=EDGE_CURVE('',#457,#457,#405,.T.);
#552=EDGE_CURVE('',#458,#458,#406,.T.);
#553=EDGE_CURVE('',#458,#453,#247,.T.);
#554=EDGE_CURVE('',#459,#459,#407,.T.);
#555=EDGE_CURVE('',#459,#460,#248,.T.);
#556=EDGE_CURVE('',#460,#460,#408,.T.);
#557=EDGE_CURVE('',#461,#461,#409,.T.);
#558=EDGE_CURVE('',#461,#455,#249,.T.);
#559=EDGE_CURVE('',#462,#462,#410,.T.);
#560=EDGE_CURVE('',#462,#463,#250,.T.);
#561=EDGE_CURVE('',#463,#463,#411,.T.);
#562=EDGE_CURVE('',#464,#464,#412,.T.);
#563=EDGE_CURVE('',#464,#454,#251,.T.);
#564=EDGE_CURVE('',#465,#466,#252,.T.);
#565=EDGE_CURVE('',#467,#465,#253,.T.);
#566=EDGE_CURVE('',#468,#467,#254,.T.);
#567=EDGE_CURVE('',#466,#468,#255,.T.);
#568=EDGE_CURVE('',#469,#465,#256,.T.);
#569=EDGE_CURVE('',#470,#469,#257,.T.);
#570=EDGE_CURVE('',#467,#470,#258,.T.);
#571=EDGE_CURVE('',#471,#469,#259,.T.);
#572=EDGE_CURVE('',#472,#471,#260,.T.);
#573=EDGE_CURVE('',#470,#472,#261,.T.);
#574=EDGE_CURVE('',#473,#471,#262,.T.);
#575=EDGE_CURVE('',#474,#473,#263,.T.);
#576=EDGE_CURVE('',#472,#474,#264,.T.);
#577=EDGE_CURVE('',#475,#473,#265,.T.);
#578=EDGE_CURVE('',#476,#475,#266,.T.);
#579=EDGE_CURVE('',#474,#476,#267,.T.);
#580=EDGE_CURVE('',#477,#475,#268,.T.);
#581=EDGE_CURVE('',#478,#477,#269,.T.);
#582=EDGE_CURVE('',#476,#478,#270,.T.);
#583=EDGE_CURVE('',#479,#477,#271,.T.);
#584=EDGE_CURVE('',#480,#479,#272,.T.);
#585=EDGE_CURVE('',#478,#480,#273,.T.);
#586=EDGE_CURVE('',#481,#466,#274,.T.);
#587=EDGE_CURVE('',#482,#481,#275,.T.);
#588=EDGE_CURVE('',#483,#482,#276,.T.);
#589=EDGE_CURVE('',#484,#483,#277,.T.);
#590=EDGE_CURVE('',#479,#484,#278,.T.);
#591=EDGE_CURVE('',#443,#485,#279,.T.);
#592=EDGE_CURVE('',#486,#485,#280,.T.);
#593=EDGE_CURVE('',#445,#486,#281,.T.);
#594=EDGE_CURVE('',#446,#484,#282,.T.);
#595=EDGE_CURVE('',#480,#486,#283,.T.);
#596=EDGE_CURVE('',#447,#483,#284,.T.);
#597=EDGE_CURVE('',#448,#482,#285,.T.);
#598=EDGE_CURVE('',#449,#481,#286,.T.);
#599=EDGE_CURVE('',#487,#468,#287,.T.);
#600=EDGE_CURVE('',#450,#487,#288,.T.);
#601=EDGE_CURVE('',#488,#487,#289,.T.);
#602=EDGE_CURVE('',#451,#488,#290,.T.);
#603=EDGE_CURVE('',#489,#488,#291,.T.);
#604=EDGE_CURVE('',#452,#489,#292,.T.);
#605=EDGE_CURVE('',#490,#489,#293,.T.);
#606=EDGE_CURVE('',#444,#490,#294,.T.);
#607=EDGE_CURVE('',#485,#490,#295,.T.);
#608=ORIENTED_EDGE('',*,*,#491,.F.);
#609=ORIENTED_EDGE('',*,*,#492,.T.);
#610=ORIENTED_EDGE('',*,*,#493,.F.);
#611=ORIENTED_EDGE('',*,*,#492,.F.);
#612=ORIENTED_EDGE('',*,*,#494,.F.);
#613=ORIENTED_EDGE('',*,*,#495,.T.);
#614=ORIENTED_EDGE('',*,*,#496,.F.);
#615=ORIENTED_EDGE('',*,*,#495,.F.);
#616=ORIENTED_EDGE('',*,*,#497,.F.);
#617=ORIENTED_EDGE('',*,*,#498,.T.);
#618=ORIENTED_EDGE('',*,*,#499,.F.);
#619=ORIENTED_EDGE('',*,*,#498,.F.);
#620=ORIENTED_EDGE('',*,*,#500,.F.);
#621=ORIENTED_EDGE('',*,*,#501,.T.);
#622=ORIENTED_EDGE('',*,*,#502,.F.);
#623=ORIENTED_EDGE('',*,*,#501,.F.);
#624=ORIENTED_EDGE('',*,*,#503,.F.);
#625=ORIENTED_EDGE('',*,*,#504,.T.);
#626=ORIENTED_EDGE('',*,*,#505,.F.);
#627=ORIENTED_EDGE('',*,*,#504,.F.);
#628=ORIENTED_EDGE('',*,*,#506,.F.);
#629=ORIENTED_EDGE('',*,*,#507,.T.);
#630=ORIENTED_EDGE('',*,*,#508,.T.);
#631=ORIENTED_EDGE('',*,*,#507,.F.);
#632=ORIENTED_EDGE('',*,*,#508,.F.);
#633=ORIENTED_EDGE('',*,*,#509,.F.);
#634=ORIENTED_EDGE('',*,*,#510,.F.);
#635=ORIENTED_EDGE('',*,*,#511,.T.);
#636=ORIENTED_EDGE('',*,*,#512,.T.);
#637=ORIENTED_EDGE('',*,*,#511,.F.);
#638=ORIENTED_EDGE('',*,*,#512,.F.);
#639=ORIENTED_EDGE('',*,*,#513,.F.);
#640=ORIENTED_EDGE('',*,*,#514,.F.);
#641=ORIENTED_EDGE('',*,*,#515,.T.);
#642=ORIENTED_EDGE('',*,*,#516,.T.);
#643=ORIENTED_EDGE('',*,*,#515,.F.);
#644=ORIENTED_EDGE('',*,*,#516,.F.);
#645=ORIENTED_EDGE('',*,*,#517,.F.);
#646=ORIENTED_EDGE('',*,*,#518,.F.);
#647=ORIENTED_EDGE('',*,*,#519,.T.);
#648=ORIENTED_EDGE('',*,*,#513,.T.);
#649=ORIENTED_EDGE('',*,*,#519,.F.);
#650=ORIENTED_EDGE('',*,*,#520,.F.);
#651=ORIENTED_EDGE('',*,*,#521,.T.);
#652=ORIENTED_EDGE('',*,*,#509,.T.);
#653=ORIENTED_EDGE('',*,*,#521,.F.);
#654=ORIENTED_EDGE('',*,*,#522,.F.);
#655=ORIENTED_EDGE('',*,*,#523,.T.);
#656=ORIENTED_EDGE('',*,*,#517,.T.);
#657=ORIENTED_EDGE('',*,*,#523,.F.);
#658=ORIENTED_EDGE('',*,*,#524,.F.);
#659=ORIENTED_EDGE('',*,*,#525,.T.);
#660=ORIENTED_EDGE('',*,*,#526,.T.);
#661=ORIENTED_EDGE('',*,*,#525,.F.);
#662=ORIENTED_EDGE('',*,*,#526,.F.);
#663=ORIENTED_EDGE('',*,*,#527,.F.);
#664=ORIENTED_EDGE('',*,*,#528,.F.);
#665=ORIENTED_EDGE('',*,*,#529,.T.);
#666=ORIENTED_EDGE('',*,*,#527,.T.);
#667=ORIENTED_EDGE('',*,*,#529,.F.);
#668=ORIENTED_EDGE('',*,*,#530,.F.);
#669=ORIENTED_EDGE('',*,*,#531,.T.);
#670=ORIENTED_EDGE('',*,*,#532,.F.);
#671=ORIENTED_EDGE('',*,*,#531,.F.);
#672=ORIENTED_EDGE('',*,*,#533,.F.);
#673=ORIENTED_EDGE('',*,*,#534,.T.);
#674=ORIENTED_EDGE('',*,*,#535,.F.);
#675=ORIENTED_EDGE('',*,*,#534,.F.);
#676=ORIENTED_EDGE('',*,*,#533,.T.);
#677=ORIENTED_EDGE('',*,*,#532,.T.);
#678=ORIENTED_EDGE('',*,*,#536,.F.);
#679=ORIENTED_EDGE('',*,*,#537,.T.);
#680=ORIENTED_EDGE('',*,*,#538,.T.);
#681=ORIENTED_EDGE('',*,*,#539,.T.);
#682=ORIENTED_EDGE('',*,*,#540,.T.);
#683=ORIENTED_EDGE('',*,*,#541,.T.);
#684=ORIENTED_EDGE('',*,*,#542,.T.);
#685=ORIENTED_EDGE('',*,*,#543,.T.);
#686=ORIENTED_EDGE('',*,*,#544,.T.);
#687=ORIENTED_EDGE('',*,*,#545,.F.);
#688=ORIENTED_EDGE('',*,*,#493,.T.);
#689=ORIENTED_EDGE('',*,*,#496,.T.);
#690=ORIENTED_EDGE('',*,*,#499,.T.);
#691=ORIENTED_EDGE('',*,*,#502,.T.);
#692=ORIENTED_EDGE('',*,*,#505,.T.);
#693=ORIENTED_EDGE('',*,*,#518,.T.);
#694=ORIENTED_EDGE('',*,*,#520,.T.);
#695=ORIENTED_EDGE('',*,*,#522,.T.);
#696=ORIENTED_EDGE('',*,*,#528,.T.);
#697=ORIENTED_EDGE('',*,*,#546,.T.);
#698=ORIENTED_EDGE('',*,*,#547,.T.);
#699=ORIENTED_EDGE('',*,*,#548,.T.);
#700=ORIENTED_EDGE('',*,*,#535,.T.);
#701=ORIENTED_EDGE('',*,*,#549,.F.);
#702=ORIENTED_EDGE('',*,*,#550,.T.);
#703=ORIENTED_EDGE('',*,*,#551,.F.);
#704=ORIENTED_EDGE('',*,*,#550,.F.);
#705=ORIENTED_EDGE('',*,*,#552,.F.);
#706=ORIENTED_EDGE('',*,*,#553,.T.);
#707=ORIENTED_EDGE('',*,*,#546,.F.);
#708=ORIENTED_EDGE('',*,*,#553,.F.);
#709=ORIENTED_EDGE('',*,*,#552,.T.);
#710=ORIENTED_EDGE('',*,*,#551,.T.);
#711=ORIENTED_EDGE('',*,*,#530,.T.);
#712=ORIENTED_EDGE('',*,*,#554,.F.);
#713=ORIENTED_EDGE('',*,*,#555,.T.);
#714=ORIENTED_EDGE('',*,*,#556,.F.);
#715=ORIENTED_EDGE('',*,*,#555,.F.);
#716=ORIENTED_EDGE('',*,*,#557,.F.);
#717=ORIENTED_EDGE('',*,*,#558,.T.);
#718=ORIENTED_EDGE('',*,*,#548,.F.);
#719=ORIENTED_EDGE('',*,*,#558,.F.);
#720=ORIENTED_EDGE('',*,*,#557,.T.);
#721=ORIENTED_EDGE('',*,*,#556,.T.);
#722=ORIENTED_EDGE('',*,*,#549,.T.);
#723=ORIENTED_EDGE('',*,*,#559,.F.);
#724=ORIENTED_EDGE('',*,*,#560,.T.);
#725=ORIENTED_EDGE('',*,*,#561,.F.);
#726=ORIENTED_EDGE('',*,*,#560,.F.);
#727=ORIENTED_EDGE('',*,*,#562,.F.);
#728=ORIENTED_EDGE('',*,*,#563,.T.);
#729=ORIENTED_EDGE('',*,*,#547,.F.);
#730=ORIENTED_EDGE('',*,*,#563,.F.);
#731=ORIENTED_EDGE('',*,*,#562,.T.);
#732=ORIENTED_EDGE('',*,*,#561,.T.);
#733=ORIENTED_EDGE('',*,*,#554,.T.);
#734=ORIENTED_EDGE('',*,*,#564,.F.);
#735=ORIENTED_EDGE('',*,*,#565,.F.);
#736=ORIENTED_EDGE('',*,*,#566,.F.);
#737=ORIENTED_EDGE('',*,*,#567,.F.);
#738=ORIENTED_EDGE('',*,*,#568,.F.);
#739=ORIENTED_EDGE('',*,*,#569,.F.);
#740=ORIENTED_EDGE('',*,*,#570,.F.);
#741=ORIENTED_EDGE('',*,*,#565,.T.);
#742=ORIENTED_EDGE('',*,*,#571,.F.);
#743=ORIENTED_EDGE('',*,*,#572,.F.);
#744=ORIENTED_EDGE('',*,*,#573,.F.);
#745=ORIENTED_EDGE('',*,*,#569,.T.);
#746=ORIENTED_EDGE('',*,*,#574,.F.);
#747=ORIENTED_EDGE('',*,*,#575,.F.);
#748=ORIENTED_EDGE('',*,*,#576,.F.);
#749=ORIENTED_EDGE('',*,*,#572,.T.);
#750=ORIENTED_EDGE('',*,*,#577,.F.);
#751=ORIENTED_EDGE('',*,*,#578,.F.);
#752=ORIENTED_EDGE('',*,*,#579,.F.);
#753=ORIENTED_EDGE('',*,*,#575,.T.);
#754=ORIENTED_EDGE('',*,*,#580,.F.);
#755=ORIENTED_EDGE('',*,*,#581,.F.);
#756=ORIENTED_EDGE('',*,*,#582,.F.);
#757=ORIENTED_EDGE('',*,*,#578,.T.);
#758=ORIENTED_EDGE('',*,*,#583,.F.);
#759=ORIENTED_EDGE('',*,*,#584,.F.);
#760=ORIENTED_EDGE('',*,*,#585,.F.);
#761=ORIENTED_EDGE('',*,*,#581,.T.);
#762=ORIENTED_EDGE('',*,*,#568,.T.);
#763=ORIENTED_EDGE('',*,*,#564,.T.);
#764=ORIENTED_EDGE('',*,*,#586,.F.);
#765=ORIENTED_EDGE('',*,*,#587,.F.);
#766=ORIENTED_EDGE('',*,*,#588,.F.);
#767=ORIENTED_EDGE('',*,*,#589,.F.);
#768=ORIENTED_EDGE('',*,*,#590,.F.);
#769=ORIENTED_EDGE('',*,*,#583,.T.);
#770=ORIENTED_EDGE('',*,*,#580,.T.);
#771=ORIENTED_EDGE('',*,*,#577,.T.);
#772=ORIENTED_EDGE('',*,*,#574,.T.);
#773=ORIENTED_EDGE('',*,*,#571,.T.);
#774=ORIENTED_EDGE('',*,*,#537,.F.);
#775=ORIENTED_EDGE('',*,*,#591,.T.);
#776=ORIENTED_EDGE('',*,*,#592,.F.);
#777=ORIENTED_EDGE('',*,*,#593,.F.);
#778=ORIENTED_EDGE('',*,*,#590,.T.);
#779=ORIENTED_EDGE('',*,*,#594,.F.);
#780=ORIENTED_EDGE('',*,*,#538,.F.);
#781=ORIENTED_EDGE('',*,*,#593,.T.);
#782=ORIENTED_EDGE('',*,*,#595,.F.);
#783=ORIENTED_EDGE('',*,*,#584,.T.);
#784=ORIENTED_EDGE('',*,*,#589,.T.);
#785=ORIENTED_EDGE('',*,*,#596,.F.);
#786=ORIENTED_EDGE('',*,*,#539,.F.);
#787=ORIENTED_EDGE('',*,*,#594,.T.);
#788=ORIENTED_EDGE('',*,*,#588,.T.);
#789=ORIENTED_EDGE('',*,*,#597,.F.);
#790=ORIENTED_EDGE('',*,*,#540,.F.);
#791=ORIENTED_EDGE('',*,*,#596,.T.);
#792=ORIENTED_EDGE('',*,*,#587,.T.);
#793=ORIENTED_EDGE('',*,*,#598,.F.);
#794=ORIENTED_EDGE('',*,*,#541,.F.);
#795=ORIENTED_EDGE('',*,*,#597,.T.);
#796=ORIENTED_EDGE('',*,*,#567,.T.);
#797=ORIENTED_EDGE('',*,*,#599,.F.);
#798=ORIENTED_EDGE('',*,*,#600,.F.);
#799=ORIENTED_EDGE('',*,*,#542,.F.);
#800=ORIENTED_EDGE('',*,*,#598,.T.);
#801=ORIENTED_EDGE('',*,*,#586,.T.);
#802=ORIENTED_EDGE('',*,*,#543,.F.);
#803=ORIENTED_EDGE('',*,*,#600,.T.);
#804=ORIENTED_EDGE('',*,*,#601,.F.);
#805=ORIENTED_EDGE('',*,*,#602,.F.);
#806=ORIENTED_EDGE('',*,*,#544,.F.);
#807=ORIENTED_EDGE('',*,*,#602,.T.);
#808=ORIENTED_EDGE('',*,*,#603,.F.);
#809=ORIENTED_EDGE('',*,*,#604,.F.);
#810=ORIENTED_EDGE('',*,*,#545,.T.);
#811=ORIENTED_EDGE('',*,*,#604,.T.);
#812=ORIENTED_EDGE('',*,*,#605,.F.);
#813=ORIENTED_EDGE('',*,*,#606,.F.);
#814=ORIENTED_EDGE('',*,*,#536,.T.);
#815=ORIENTED_EDGE('',*,*,#606,.T.);
#816=ORIENTED_EDGE('',*,*,#607,.F.);
#817=ORIENTED_EDGE('',*,*,#591,.F.);
#818=ORIENTED_EDGE('',*,*,#607,.T.);
#819=ORIENTED_EDGE('',*,*,#605,.T.);
#820=ORIENTED_EDGE('',*,*,#603,.T.);
#821=ORIENTED_EDGE('',*,*,#601,.T.);
#822=ORIENTED_EDGE('',*,*,#599,.T.);
#823=ORIENTED_EDGE('',*,*,#566,.T.);
#824=ORIENTED_EDGE('',*,*,#570,.T.);
#825=ORIENTED_EDGE('',*,*,#573,.T.);
#826=ORIENTED_EDGE('',*,*,#576,.T.);
#827=ORIENTED_EDGE('',*,*,#579,.T.);
#828=ORIENTED_EDGE('',*,*,#582,.T.);
#829=ORIENTED_EDGE('',*,*,#585,.T.);
#830=ORIENTED_EDGE('',*,*,#595,.T.);
#831=ORIENTED_EDGE('',*,*,#592,.T.);
#832=ORIENTED_EDGE('',*,*,#491,.T.);
#833=ORIENTED_EDGE('',*,*,#494,.T.);
#834=ORIENTED_EDGE('',*,*,#497,.T.);
#835=ORIENTED_EDGE('',*,*,#500,.T.);
#836=ORIENTED_EDGE('',*,*,#503,.T.);
#837=ORIENTED_EDGE('',*,*,#506,.T.);
#838=ORIENTED_EDGE('',*,*,#510,.T.);
#839=ORIENTED_EDGE('',*,*,#514,.T.);
#840=ORIENTED_EDGE('',*,*,#524,.T.);
#841=ORIENTED_EDGE('',*,*,#559,.T.);
#842=CYLINDRICAL_SURFACE('',#932,1.75);
#843=CYLINDRICAL_SURFACE('',#935,1.75);
#844=CYLINDRICAL_SURFACE('',#938,1.75);
#845=CYLINDRICAL_SURFACE('',#941,1.75);
#846=CYLINDRICAL_SURFACE('',#944,1.75);
#847=CYLINDRICAL_SURFACE('',#947,1.82499999999999);
#848=CYLINDRICAL_SURFACE('',#952,1.82499999999998);
#849=CYLINDRICAL_SURFACE('',#957,1.825);
#850=CYLINDRICAL_SURFACE('',#962,0.949999999999998);
#851=CYLINDRICAL_SURFACE('',#964,0.950000000000024);
#852=CYLINDRICAL_SURFACE('',#966,0.950000000000006);
#853=CYLINDRICAL_SURFACE('',#968,1.82500000000001);
#854=CYLINDRICAL_SURFACE('',#973,0.949999999999989);
#855=CYLINDRICAL_SURFACE('',#975,1.75000000000002);
#856=CYLINDRICAL_SURFACE('',#978,2.75000000000001);
#857=CYLINDRICAL_SURFACE('',#986,1.75);
#858=CYLINDRICAL_SURFACE('',#989,2.75);
#859=CYLINDRICAL_SURFACE('',#993,1.75000000000002);
#860=CYLINDRICAL_SURFACE('',#996,2.75);
#861=CYLINDRICAL_SURFACE('',#1000,1.74999999999998);
#862=CYLINDRICAL_SURFACE('',#1003,2.74999999999999);
#863=ADVANCED_FACE('',(#85),#842,.F.);
#864=ADVANCED_FACE('',(#86),#843,.F.);
#865=ADVANCED_FACE('',(#87),#844,.F.);
#866=ADVANCED_FACE('',(#88),#845,.F.);
#867=ADVANCED_FACE('',(#89),#846,.F.);
#868=ADVANCED_FACE('',(#90),#847,.F.);
#869=ADVANCED_FACE('',(#91,#23),#53,.T.);
#870=ADVANCED_FACE('',(#92),#848,.F.);
#871=ADVANCED_FACE('',(#93,#24),#54,.T.);
#872=ADVANCED_FACE('',(#94),#849,.F.);
#873=ADVANCED_FACE('',(#95,#25),#55,.T.);
#874=ADVANCED_FACE('',(#96),#850,.F.);
#875=ADVANCED_FACE('',(#97),#851,.F.);
#876=ADVANCED_FACE('',(#98),#852,.F.);
#877=ADVANCED_FACE('',(#99),#853,.F.);
#878=ADVANCED_FACE('',(#100,#26),#56,.T.);
#879=ADVANCED_FACE('',(#101),#854,.F.);
#880=ADVANCED_FACE('',(#102),#855,.F.);
#881=ADVANCED_FACE('',(#103),#856,.T.);
#882=ADVANCED_FACE('',(#104,#27),#57,.T.);
#883=ADVANCED_FACE('',(#105,#28,#29,#30,#31,#32,#33,#34,#35,#36,#37,#38,
#39,#40),#58,.F.);
#884=ADVANCED_FACE('',(#106),#857,.F.);
#885=ADVANCED_FACE('',(#107),#858,.T.);
#886=ADVANCED_FACE('',(#108,#41),#59,.T.);
#887=ADVANCED_FACE('',(#109),#60,.F.);
#888=ADVANCED_FACE('',(#110),#859,.F.);
#889=ADVANCED_FACE('',(#111),#860,.T.);
#890=ADVANCED_FACE('',(#112,#42),#61,.T.);
#891=ADVANCED_FACE('',(#113),#62,.F.);
#892=ADVANCED_FACE('',(#114),#861,.F.);
#893=ADVANCED_FACE('',(#115),#862,.T.);
#894=ADVANCED_FACE('',(#116,#43),#63,.T.);
#895=ADVANCED_FACE('',(#117),#64,.F.);
#896=ADVANCED_FACE('',(#118),#65,.T.);
#897=ADVANCED_FACE('',(#119),#66,.T.);
#898=ADVANCED_FACE('',(#120),#67,.T.);
#899=ADVANCED_FACE('',(#121),#68,.T.);
#900=ADVANCED_FACE('',(#122),#69,.T.);
#901=ADVANCED_FACE('',(#123),#70,.T.);
#902=ADVANCED_FACE('',(#124),#71,.T.);
#903=ADVANCED_FACE('',(#125),#72,.F.);
#904=ADVANCED_FACE('',(#126),#73,.T.);
#905=ADVANCED_FACE('',(#127),#74,.T.);
#906=ADVANCED_FACE('',(#128),#75,.T.);
#907=ADVANCED_FACE('',(#129),#76,.T.);
#908=ADVANCED_FACE('',(#130),#77,.T.);
#909=ADVANCED_FACE('',(#131),#78,.T.);
#910=ADVANCED_FACE('',(#132),#79,.T.);
#911=ADVANCED_FACE('',(#133),#80,.T.);
#912=ADVANCED_FACE('',(#134),#81,.T.);
#913=ADVANCED_FACE('',(#135),#82,.T.);
#914=ADVANCED_FACE('',(#136,#44,#45,#46,#47,#48,#49,#50,#51,#52),#83,.T.);
#915=ADVANCED_FACE('',(#137),#84,.F.);
#916=CLOSED_SHELL('',(#863,#864,#865,#866,#867,#868,#869,#870,#871,#872,
#873,#874,#875,#876,#877,#878,#879,#880,#881,#882,#883,#884,#885,#886,#887,
#888,#889,#890,#891,#892,#893,#894,#895,#896,#897,#898,#899,#900,#901,#902,
#903,#904,#905,#906,#907,#908,#909,#910,#911,#912,#913,#914,#915));
#917=DERIVED_UNIT_ELEMENT(#919,1.);
#918=DERIVED_UNIT_ELEMENT(#1566,-3.);
#919=(
MASS_UNIT()
NAMED_UNIT(*)
SI_UNIT(.KILO.,.GRAM.)
);
#920=DERIVED_UNIT((#917,#918));
#921=MEASURE_REPRESENTATION_ITEM('density measure',
POSITIVE_RATIO_MEASURE(7850.),#920);
#922=PROPERTY_DEFINITION_REPRESENTATION(#927,#924);
#923=PROPERTY_DEFINITION_REPRESENTATION(#928,#925);
#924=REPRESENTATION('material name',(#926),#1563);
#925=REPRESENTATION('density',(#921),#1563);
#926=DESCRIPTIVE_REPRESENTATION_ITEM('Steel','Steel');
#927=PROPERTY_DEFINITION('material property','material name',#1583);
#928=PROPERTY_DEFINITION('material property','density of part',#1583);
#929=AXIS2_PLACEMENT_3D('',#1304,#1029,#1030);
#930=AXIS2_PLACEMENT_3D('',#1305,#1031,#1032);
#931=AXIS2_PLACEMENT_3D('',#1306,#1033,#1034);
#932=AXIS2_PLACEMENT_3D('',#1307,#1035,#1036);
#933=AXIS2_PLACEMENT_3D('',#1309,#1037,#1038);
#934=AXIS2_PLACEMENT_3D('',#1312,#1040,#1041);
#935=AXIS2_PLACEMENT_3D('',#1313,#1042,#1043);
#936=AXIS2_PLACEMENT_3D('',#1315,#1044,#1045);
#937=AXIS2_PLACEMENT_3D('',#1318,#1047,#1048);
#938=AXIS2_PLACEMENT_3D('',#1319,#1049,#1050);
#939=AXIS2_PLACEMENT_3D('',#1321,#1051,#1052);
#940=AXIS2_PLACEMENT_3D('',#1324,#1054,#1055);
#941=AXIS2_PLACEMENT_3D('',#1325,#1056,#1057);
#942=AXIS2_PLACEMENT_3D('',#1327,#1058,#1059);
#943=AXIS2_PLACEMENT_3D('',#1330,#1061,#1062);
#944=AXIS2_PLACEMENT_3D('',#1331,#1063,#1064);
#945=AXIS2_PLACEMENT_3D('',#1333,#1065,#1066);
#946=AXIS2_PLACEMENT_3D('',#1336,#1068,#1069);
#947=AXIS2_PLACEMENT_3D('',#1337,#1070,#1071);
#948=AXIS2_PLACEMENT_3D('',#1339,#1072,#1073);
#949=AXIS2_PLACEMENT_3D('',#1342,#1075,#1076);
#950=AXIS2_PLACEMENT_3D('',#1343,#1077,#1078);
#951=AXIS2_PLACEMENT_3D('',#1345,#1079,#1080);
#952=AXIS2_PLACEMENT_3D('',#1346,#1081,#1082);
#953=AXIS2_PLACEMENT_3D('',#1348,#1083,#1084);
#954=AXIS2_PLACEMENT_3D('',#1351,#1086,#1087);
#955=AXIS2_PLACEMENT_3D('',#1352,#1088,#1089);
#956=AXIS2_PLACEMENT_3D('',#1354,#1090,#1091);
#957=AXIS2_PLACEMENT_3D('',#1355,#1092,#1093);
#958=AXIS2_PLACEMENT_3D('',#1357,#1094,#1095);
#959=AXIS2_PLACEMENT_3D('',#1360,#1097,#1098);
#960=AXIS2_PLACEMENT_3D('',#1361,#1099,#1100);
#961=AXIS2_PLACEMENT_3D('',#1363,#1101,#1102);
#962=AXIS2_PLACEMENT_3D('',#1364,#1103,#1104);
#963=AXIS2_PLACEMENT_3D('',#1366,#1105,#1106);
#964=AXIS2_PLACEMENT_3D('',#1368,#1108,#1109);
#965=AXIS2_PLACEMENT_3D('',#1370,#1110,#1111);
#966=AXIS2_PLACEMENT_3D('',#1372,#1113,#1114);
#967=AXIS2_PLACEMENT_3D('',#1374,#1115,#1116);
#968=AXIS2_PLACEMENT_3D('',#1376,#1118,#1119);
#969=AXIS2_PLACEMENT_3D('',#1378,#1120,#1121);
#970=AXIS2_PLACEMENT_3D('',#1381,#1123,#1124);
#971=AXIS2_PLACEMENT_3D('',#1382,#1125,#1126);
#972=AXIS2_PLACEMENT_3D('',#1384,#1127,#1128);
#973=AXIS2_PLACEMENT_3D('',#1385,#1129,#1130);
#974=AXIS2_PLACEMENT_3D('',#1387,#1131,#1132);
#975=AXIS2_PLACEMENT_3D('',#1389,#1134,#1135);
#976=AXIS2_PLACEMENT_3D('',#1391,#1136,#1137);
#977=AXIS2_PLACEMENT_3D('',#1394,#1139,#1140);
#978=AXIS2_PLACEMENT_3D('',#1395,#1141,#1142);
#979=AXIS2_PLACEMENT_3D('',#1397,#1143,#1144);
#980=AXIS2_PLACEMENT_3D('',#1400,#1146,#1147);
#981=AXIS2_PLACEMENT_3D('',#1401,#1148,#1149);
#982=AXIS2_PLACEMENT_3D('',#1402,#1150,#1151);
#983=AXIS2_PLACEMENT_3D('',#1424,#1162,#1163);
#984=AXIS2_PLACEMENT_3D('',#1426,#1164,#1165);
#985=AXIS2_PLACEMENT_3D('',#1428,#1166,#1167);
#986=AXIS2_PLACEMENT_3D('',#1429,#1168,#1169);
#987=AXIS2_PLACEMENT_3D('',#1431,#1170,#1171);
#988=AXIS2_PLACEMENT_3D('',#1434,#1173,#1174);
#989=AXIS2_PLACEMENT_3D('',#1435,#1175,#1176);
#990=AXIS2_PLACEMENT_3D('',#1437,#1177,#1178);
#991=AXIS2_PLACEMENT_3D('',#1439,#1180,#1181);
#992=AXIS2_PLACEMENT_3D('',#1440,#1182,#1183);
#993=AXIS2_PLACEMENT_3D('',#1441,#1184,#1185);
#994=AXIS2_PLACEMENT_3D('',#1443,#1186,#1187);
#995=AXIS2_PLACEMENT_3D('',#1446,#1189,#1190);
#996=AXIS2_PLACEMENT_3D('',#1447,#1191,#1192);
#997=AXIS2_PLACEMENT_3D('',#1449,#1193,#1194);
#998=AXIS2_PLACEMENT_3D('',#1451,#1196,#1197);
#999=AXIS2_PLACEMENT_3D('',#1452,#1198,#1199);
#1000=AXIS2_PLACEMENT_3D('',#1453,#1200,#1201);
#1001=AXIS2_PLACEMENT_3D('',#1455,#1202,#1203);
#1002=AXIS2_PLACEMENT_3D('',#1458,#1205,#1206);
#1003=AXIS2_PLACEMENT_3D('',#1459,#1207,#1208);
#1004=AXIS2_PLACEMENT_3D('',#1461,#1209,#1210);
#1005=AXIS2_PLACEMENT_3D('',#1463,#1212,#1213);
#1006=AXIS2_PLACEMENT_3D('',#1464,#1214,#1215);
#1007=AXIS2_PLACEMENT_3D('',#1465,#1216,#1217);
#1008=AXIS2_PLACEMENT_3D('',#1474,#1222,#1223);
#1009=AXIS2_PLACEMENT_3D('',#1480,#1227,#1228);
#1010=AXIS2_PLACEMENT_3D('',#1486,#1232,#1233);
#1011=AXIS2_PLACEMENT_3D('',#1492,#1237,#1238);
#1012=AXIS2_PLACEMENT_3D('',#1498,#1242,#1243);
#1013=AXIS2_PLACEMENT_3D('',#1504,#1247,#1248);
#1014=AXIS2_PLACEMENT_3D('',#1510,#1252,#1253);
#1015=AXIS2_PLACEMENT_3D('',#1520,#1259,#1260);
#1016=AXIS2_PLACEMENT_3D('',#1526,#1264,#1265);
#1017=AXIS2_PLACEMENT_3D('',#1529,#1268,#1269);
#1018=AXIS2_PLACEMENT_3D('',#1531,#1271,#1272);
#1019=AXIS2_PLACEMENT_3D('',#1533,#1274,#1275);
#1020=AXIS2_PLACEMENT_3D('',#1535,#1277,#1278);
#1021=AXIS2_PLACEMENT_3D('',#1539,#1281,#1282);
#1022=AXIS2_PLACEMENT_3D('',#1543,#1285,#1286);
#1023=AXIS2_PLACEMENT_3D('',#1547,#1289,#1290);
#1024=AXIS2_PLACEMENT_3D('',#1551,#1293,#1294);
#1025=AXIS2_PLACEMENT_3D('',#1553,#1296,#1297);
#1026=AXIS2_PLACEMENT_3D('',#1554,#1298,#1299);
#1027=AXIS2_PLACEMENT_3D('',#1555,#1300,#1301);
#1028=AXIS2_PLACEMENT_3D('',#1556,#1302,#1303);
#1029=DIRECTION('axis',(0.,0.,1.));
#1030=DIRECTION('refdir',(1.,0.,0.));
#1031=DIRECTION('axis',(0.,0.,1.));
#1032=DIRECTION('refdir',(1.,0.,0.));
#1033=DIRECTION('axis',(0.,0.,1.));
#1034=DIRECTION('refdir',(1.,0.,0.));
#1035=DIRECTION('center_axis',(0.,0.,-1.));
#1036=DIRECTION('ref_axis',(-1.,0.,0.));
#1037=DIRECTION('center_axis',(5.40216018502614E-17,4.49455090610567E-14,
-1.));
#1038=DIRECTION('ref_axis',(-1.,0.,0.));
#1039=DIRECTION('',(0.,0.,-1.));
#1040=DIRECTION('center_axis',(-5.40216018502614E-17,-4.49455090610567E-14,
1.));
#1041=DIRECTION('ref_axis',(-1.,0.,0.));
#1042=DIRECTION('center_axis',(0.,0.,-1.));
#1043=DIRECTION('ref_axis',(-1.,0.,0.));
#1044=DIRECTION('center_axis',(5.40216018502614E-17,4.49455090610567E-14,
-1.));
#1045=DIRECTION('ref_axis',(-1.,0.,0.));
#1046=DIRECTION('',(0.,0.,-1.));
#1047=DIRECTION('center_axis',(-5.40216018502614E-17,-4.49455090610567E-14,
1.));
#1048=DIRECTION('ref_axis',(-1.,0.,0.));
#1049=DIRECTION('center_axis',(0.,0.,-1.));
#1050=DIRECTION('ref_axis',(-1.,0.,0.));
#1051=DIRECTION('center_axis',(5.40216018502614E-17,4.49455090610567E-14,
-1.));
#1052=DIRECTION('ref_axis',(-1.,0.,0.));
#1053=DIRECTION('',(0.,0.,-1.));
#1054=DIRECTION('center_axis',(-5.40216018502614E-17,-4.49455090610567E-14,
1.));
#1055=DIRECTION('ref_axis',(-1.,0.,0.));
#1056=DIRECTION('center_axis',(0.,0.,-1.));
#1057=DIRECTION('ref_axis',(-1.,0.,0.));
#1058=DIRECTION('center_axis',(5.40216018502614E-17,4.49455090610567E-14,
-1.));
#1059=DIRECTION('ref_axis',(-1.,0.,0.));
#1060=DIRECTION('',(0.,0.,-1.));
#1061=DIRECTION('center_axis',(-5.40216018502614E-17,-4.49455090610567E-14,
1.));
#1062=DIRECTION('ref_axis',(-1.,0.,0.));
#1063=DIRECTION('center_axis',(0.,0.,-1.));
#1064=DIRECTION('ref_axis',(-1.,0.,0.));
#1065=DIRECTION('center_axis',(5.40216018502614E-17,4.49455090610567E-14,
-1.));
#1066=DIRECTION('ref_axis',(-1.,0.,0.));
#1067=DIRECTION('',(0.,0.,-1.));
#1068=DIRECTION('center_axis',(-5.40216018502614E-17,-4.49455090610567E-14,
1.));
#1069=DIRECTION('ref_axis',(-1.,0.,0.));
#1070=DIRECTION('center_axis',(0.,0.,-1.));
#1071=DIRECTION('ref_axis',(-1.,0.,0.));
#1072=DIRECTION('center_axis',(5.40216018502614E-17,4.49455090610567E-14,
-1.));
#1073=DIRECTION('ref_axis',(-1.,0.,0.));
#1074=DIRECTION('',(0.,0.,-1.));
#1075=DIRECTION('center_axis',(0.,0.,-1.));
#1076=DIRECTION('ref_axis',(-1.,0.,0.));
#1077=DIRECTION('center_axis',(0.,0.,1.));
#1078=DIRECTION('ref_axis',(-1.,0.,0.));
#1079=DIRECTION('center_axis',(0.,0.,1.));
#1080=DIRECTION('ref_axis',(-1.,0.,0.));
#1081=DIRECTION('center_axis',(0.,0.,-1.));
#1082=DIRECTION('ref_axis',(-1.,0.,0.));
#1083=DIRECTION('center_axis',(5.40216018502614E-17,4.49455090610567E-14,
-1.));
#1084=DIRECTION('ref_axis',(-1.,0.,0.));
#1085=DIRECTION('',(0.,0.,-1.));
#1086=DIRECTION('center_axis',(0.,0.,-1.));
#1087=DIRECTION('ref_axis',(-1.,0.,0.));
#1088=DIRECTION('center_axis',(0.,0.,1.));
#1089=DIRECTION('ref_axis',(-1.,0.,0.));
#1090=DIRECTION('center_axis',(0.,0.,1.));
#1091=DIRECTION('ref_axis',(-1.,0.,0.));
#1092=DIRECTION('center_axis',(0.,0.,-1.));
#1093=DIRECTION('ref_axis',(-1.,0.,0.));
#1094=DIRECTION('center_axis',(5.40216018502614E-17,4.49455090610567E-14,
-1.));
#1095=DIRECTION('ref_axis',(-1.,0.,0.));
#1096=DIRECTION('',(0.,0.,-1.));
#1097=DIRECTION('center_axis',(0.,0.,-1.));
#1098=DIRECTION('ref_axis',(-1.,0.,0.));
#1099=DIRECTION('center_axis',(0.,0.,1.));
#1100=DIRECTION('ref_axis',(-1.,0.,0.));
#1101=DIRECTION('center_axis',(0.,0.,1.));
#1102=DIRECTION('ref_axis',(-1.,0.,0.));
#1103=DIRECTION('center_axis',(0.,0.,-1.));
#1104=DIRECTION('ref_axis',(-1.,0.,0.));
#1105=DIRECTION('center_axis',(0.,0.,1.));
#1106=DIRECTION('ref_axis',(-1.,0.,0.));
#1107=DIRECTION('',(0.,0.,1.));
#1108=DIRECTION('center_axis',(0.,0.,-1.));
#1109=DIRECTION('ref_axis',(-1.,0.,0.));
#1110=DIRECTION('center_axis',(0.,0.,1.));
#1111=DIRECTION('ref_axis',(-1.,0.,0.));
#1112=DIRECTION('',(0.,0.,1.));
#1113=DIRECTION('center_axis',(0.,0.,-1.));
#1114=DIRECTION('ref_axis',(-1.,0.,0.));
#1115=DIRECTION('center_axis',(0.,0.,1.));
#1116=DIRECTION('ref_axis',(-1.,0.,0.));
#1117=DIRECTION('',(0.,0.,1.));
#1118=DIRECTION('center_axis',(0.,0.,-1.));
#1119=DIRECTION('ref_axis',(-1.,0.,0.));
#1120=DIRECTION('center_axis',(5.40216018502614E-17,4.49455090610567E-14,
-1.));
#1121=DIRECTION('ref_axis',(-1.,0.,0.));
#1122=DIRECTION('',(0.,0.,-1.));
#1123=DIRECTION('center_axis',(0.,0.,-1.));
#1124=DIRECTION('ref_axis',(-1.,0.,0.));
#1125=DIRECTION('center_axis',(0.,0.,1.));
#1126=DIRECTION('ref_axis',(-1.,0.,0.));
#1127=DIRECTION('center_axis',(0.,0.,1.));
#1128=DIRECTION('ref_axis',(-1.,0.,0.));
#1129=DIRECTION('center_axis',(0.,0.,-1.));
#1130=DIRECTION('ref_axis',(-1.,0.,0.));
#1131=DIRECTION('center_axis',(0.,0.,1.));
#1132=DIRECTION('ref_axis',(-1.,0.,0.));
#1133=DIRECTION('',(0.,0.,1.));
#1134=DIRECTION('center_axis',(0.,0.,-1.));
#1135=DIRECTION('ref_axis',(1.,0.,0.));
#1136=DIRECTION('center_axis',(5.40216018502614E-17,4.49455090610567E-14,
-1.));
#1137=DIRECTION('ref_axis',(1.,-2.42802839545372E-30,5.40216018502614E-17));
#1138=DIRECTION('',(0.,0.,-1.));
#1139=DIRECTION('center_axis',(0.,0.,1.));
#1140=DIRECTION('ref_axis',(1.,0.,0.));
#1141=DIRECTION('center_axis',(0.,0.,-1.));
#1142=DIRECTION('ref_axis',(1.,0.,0.));
#1143=DIRECTION('center_axis',(0.,0.,-1.));
#1144=DIRECTION('ref_axis',(1.,0.,0.));
#1145=DIRECTION('',(0.,0.,1.));
#1146=DIRECTION('center_axis',(-5.40216018502614E-17,-4.49455090610567E-14,
1.));
#1147=DIRECTION('ref_axis',(1.,-2.42802839545372E-30,5.40216018502614E-17));
#1148=DIRECTION('center_axis',(0.,0.,-1.));
#1149=DIRECTION('ref_axis',(1.,0.,0.));
#1150=DIRECTION('center_axis',(-5.40216018502614E-17,-4.49455090610567E-14,
1.));
#1151=DIRECTION('ref_axis',(-1.,6.14456493235404E-32,-5.40216018502614E-17));
#1152=DIRECTION('',(-0.707120769167621,-0.707092792928758,-3.1818845328239E-14));
#1153=DIRECTION('',(0.638255982054296,-0.769824201601837,-3.45656610179753E-14));
#1154=DIRECTION('',(-0.000141983411896472,-0.999999989920355,-4.49455162781933E-14));
#1155=DIRECTION('',(-0.638255982054284,-0.769824201601847,-3.46346202390573E-14));
#1156=DIRECTION('',(-1.,1.67177935532596E-14,-5.40216018490166E-17));
#1157=DIRECTION('',(-0.707106781186671,0.707106781186424,3.17430751999502E-14));
#1158=DIRECTION('',(-0.000141983411894458,0.999999989920355,4.49455009378506E-14));
#1159=DIRECTION('',(0.707106781186703,0.707106781186392,3.18194732819461E-14));
#1160=DIRECTION('',(1.,1.35921330818897E-14,5.40216018503792E-17));
#1161=DIRECTION('',(0.707110767611985,0.707102794738636,3.18192943243755E-14));
#1162=DIRECTION('center_axis',(-5.40216018502614E-17,-4.49455090610567E-14,
1.));
#1163=DIRECTION('ref_axis',(1.,-2.42802839545372E-30,5.40216018502614E-17));
#1164=DIRECTION('center_axis',(-5.40216018502614E-17,-4.49455090610567E-14,
1.));
#1165=DIRECTION('ref_axis',(1.,-2.42802839545372E-30,5.40216018502614E-17));
#1166=DIRECTION('center_axis',(-5.40216018502614E-17,-4.49455090610567E-14,
1.));
#1167=DIRECTION('ref_axis',(1.,-2.42802839545372E-30,5.40216018502614E-17));
#1168=DIRECTION('center_axis',(0.,0.,-1.));
#1169=DIRECTION('ref_axis',(1.,0.,0.));
#1170=DIRECTION('center_axis',(5.40216018502614E-17,4.49455090610567E-14,
-1.));
#1171=DIRECTION('ref_axis',(1.,-2.42802839545372E-30,5.40216018502614E-17));
#1172=DIRECTION('',(0.,0.,-1.));
#1173=DIRECTION('center_axis',(0.,0.,1.));
#1174=DIRECTION('ref_axis',(1.,0.,0.));
#1175=DIRECTION('center_axis',(0.,0.,-1.));
#1176=DIRECTION('ref_axis',(1.,0.,0.));
#1177=DIRECTION('center_axis',(0.,0.,-1.));
#1178=DIRECTION('ref_axis',(1.,0.,0.));
#1179=DIRECTION('',(0.,0.,1.));
#1180=DIRECTION('center_axis',(0.,0.,-1.));
#1181=DIRECTION('ref_axis',(1.,0.,0.));
#1182=DIRECTION('center_axis',(-5.40216018502614E-17,-4.49455090610567E-14,
1.));
#1183=DIRECTION('ref_axis',(-1.,6.14456493235404E-32,-5.40216018502614E-17));
#1184=DIRECTION('center_axis',(0.,0.,-1.));
#1185=DIRECTION('ref_axis',(1.,0.,0.));
#1186=DIRECTION('center_axis',(5.40216018502614E-17,4.49455090610567E-14,
-1.));
#1187=DIRECTION('ref_axis',(1.,-2.42802839545372E-30,5.40216018502614E-17));
#1188=DIRECTION('',(0.,0.,-1.));
#1189=DIRECTION('center_axis',(0.,0.,1.));
#1190=DIRECTION('ref_axis',(1.,0.,0.));
#1191=DIRECTION('center_axis',(0.,0.,-1.));
#1192=DIRECTION('ref_axis',(1.,0.,0.));
#1193=DIRECTION('center_axis',(0.,0.,-1.));
#1194=DIRECTION('ref_axis',(1.,0.,0.));
#1195=DIRECTION('',(0.,0.,1.));
#1196=DIRECTION('center_axis',(0.,0.,-1.));
#1197=DIRECTION('ref_axis',(1.,0.,0.));
#1198=DIRECTION('center_axis',(-5.40216018502614E-17,-4.49455090610567E-14,
1.));
#1199=DIRECTION('ref_axis',(-1.,6.14456493235404E-32,-5.40216018502614E-17));
#1200=DIRECTION('center_axis',(0.,0.,-1.));
#1201=DIRECTION('ref_axis',(1.,0.,0.));
#1202=DIRECTION('center_axis',(5.40216018502614E-17,4.49455090610567E-14,
-1.));
#1203=DIRECTION('ref_axis',(1.,-2.42802839545372E-30,5.40216018502614E-17));
#1204=DIRECTION('',(0.,0.,-1.));
#1205=DIRECTION('center_axis',(0.,0.,1.));
#1206=DIRECTION('ref_axis',(1.,0.,0.));
#1207=DIRECTION('center_axis',(0.,0.,-1.));
#1208=DIRECTION('ref_axis',(1.,0.,0.));
#1209=DIRECTION('center_axis',(0.,0.,-1.));
#1210=DIRECTION('ref_axis',(1.,0.,0.));
#1211=DIRECTION('',(0.,0.,1.));
#1212=DIRECTION('center_axis',(0.,0.,-1.));
#1213=DIRECTION('ref_axis',(1.,0.,0.));
#1214=DIRECTION('center_axis',(-5.40216018502614E-17,-4.49455090610567E-14,
1.));
#1215=DIRECTION('ref_axis',(-1.,6.14456493235404E-32,-5.40216018502614E-17));
#1216=DIRECTION('center_axis',(-0.707106781186443,0.707106781186652,0.));
#1217=DIRECTION('ref_axis',(0.707106781186652,0.707106781186443,0.));
#1218=DIRECTION('',(0.707106781186652,0.707106781186443,3.18954502640893E-14));
#1219=DIRECTION('',(0.,0.,-1.));
#1220=DIRECTION('',(-0.707106781186652,-0.707106781186443,0.));
#1221=DIRECTION('',(-6.05225765601544E-18,-6.05225765601365E-18,1.));
#1222=DIRECTION('center_axis',(-1.,1.75480583757228E-13,0.));
#1223=DIRECTION('ref_axis',(1.75480583757228E-13,1.,0.));
#1224=DIRECTION('',(1.75480583757228E-13,1.,4.51347339170939E-14));
#1225=DIRECTION('',(0.,0.,-1.));
#1226=DIRECTION('',(-1.75480583757228E-13,-1.,0.));
#1227=DIRECTION('center_axis',(-0.707106781186555,-0.70710678118654,0.));
#1228=DIRECTION('ref_axis',(-0.70710678118654,0.707106781186555,0.));
#1229=DIRECTION('',(-0.70710678118654,0.707106781186555,3.19347025755614E-14));
#1230=DIRECTION('',(0.,0.,-1.));
#1231=DIRECTION('',(0.70710678118654,-0.707106781186555,0.));
#1232=DIRECTION('center_axis',(-1.67177935532596E-14,-1.,0.));
#1233=DIRECTION('ref_axis',(-1.,1.67177935532596E-14,0.));
#1234=DIRECTION('',(-1.,1.67177935532596E-14,2.77555756163834E-17));
#1235=DIRECTION('',(0.,0.,-1.));
#1236=DIRECTION('',(1.,-1.67177935532596E-14,0.));
#1237=DIRECTION('center_axis',(0.769824201601841,-0.638255982054292,0.));
#1238=DIRECTION('ref_axis',(-0.638255982054292,-0.769824201601841,0.));
#1239=DIRECTION('',(-0.638255982054292,-0.769824201601841,-3.47280953400663E-14));
#1240=DIRECTION('',(0.,0.,-1.));
#1241=DIRECTION('',(0.638255982054292,0.769824201601841,0.));
#1242=DIRECTION('center_axis',(0.999999989920355,-0.000141983411895632,
0.));
#1243=DIRECTION('ref_axis',(-0.000141983411895632,-0.999999989920355,0.));
#1244=DIRECTION('',(-0.000141983411895632,-0.999999989920355,-4.51347295213205E-14));
#1245=DIRECTION('',(0.,0.,-1.));
#1246=DIRECTION('',(0.000141983411895632,0.999999989920355,0.));
#1247=DIRECTION('center_axis',(0.769824201601889,0.638255982054234,0.));
#1248=DIRECTION('ref_axis',(0.638255982054234,-0.769824201601889,0.));
#1249=DIRECTION('',(0.638255982054234,-0.769824201601888,-3.47635256644125E-14));
#1250=DIRECTION('',(-6.05208054868086E-18,7.29963871458501E-18,-1.));
#1251=DIRECTION('',(-0.638255982054234,0.769824201601888,0.));
#1252=DIRECTION('center_axis',(2.77555756156289E-17,-4.51347339170939E-14,
1.));
#1253=DIRECTION('ref_axis',(1.,0.,-2.77555756156289E-17));
#1254=DIRECTION('',(-0.000141983411894458,0.999999989920355,4.51347374029831E-14));
#1255=DIRECTION('',(-0.707106781186671,0.707106781186424,3.19347025755555E-14));
#1256=DIRECTION('',(-1.,1.67177935532596E-14,2.77555756163834E-17));
#1257=DIRECTION('',(-0.638255982054284,-0.769824201601847,-3.47280953400666E-14));
#1258=DIRECTION('',(-0.000141983411896472,-0.999999989920355,-4.51347295213205E-14));
#1259=DIRECTION('center_axis',(0.769824201601837,0.638255982054296,2.72104890962465E-14));
#1260=DIRECTION('ref_axis',(-0.638255982054296,0.769824201601837,3.45656610179753E-14));
#1261=DIRECTION('',(0.,-4.2632564145606E-14,1.));
#1262=DIRECTION('',(-0.638255982054296,0.769824201601837,3.45656610179753E-14));
#1263=DIRECTION('',(0.,-4.2632564145606E-14,1.));
#1264=DIRECTION('center_axis',(0.999999989920355,-0.000141983411896472,
-6.05311691528835E-18));
#1265=DIRECTION('ref_axis',(0.000141983411896472,0.999999989920355,4.49455162781933E-14));
#1266=DIRECTION('',(0.,-4.2632564145606E-14,1.));
#1267=DIRECTION('',(0.000141983411896472,0.999999989920355,4.49455162781933E-14));
#1268=DIRECTION('center_axis',(0.769824201601848,-0.638255982054284,-2.7210489096246E-14));
#1269=DIRECTION('ref_axis',(0.638255982054284,0.769824201601848,3.46346202390573E-14));
#1270=DIRECTION('',(0.,-4.2632564145606E-14,1.));
#1271=DIRECTION('center_axis',(-1.67177935532596E-14,-1.,-4.2632564145606E-14));
#1272=DIRECTION('ref_axis',(1.,-1.67177935532596E-14,5.40216018490166E-17));
#1273=DIRECTION('',(0.,-4.2632564145606E-14,1.));
#1274=DIRECTION('center_axis',(-0.707106781186424,-0.707106781186671,-3.01457752067337E-14));
#1275=DIRECTION('ref_axis',(0.707106781186671,-0.707106781186424,-3.17430751999502E-14));
#1276=DIRECTION('',(0.,-4.2632564145606E-14,1.));
#1277=DIRECTION('center_axis',(-0.999999989920355,-0.000141983411894458,
-6.0531169152025E-18));
#1278=DIRECTION('ref_axis',(0.000141983411894458,-0.999999989920355,-4.49455009378506E-14));
#1279=DIRECTION('',(0.000141983411894458,-0.999999989920355,-4.49455009378506E-14));
#1280=DIRECTION('',(0.,-4.2632564145606E-14,1.));
#1281=DIRECTION('center_axis',(-0.707106781186392,0.707106781186703,3.01457752067351E-14));
#1282=DIRECTION('ref_axis',(-0.707106781186703,-0.707106781186392,-3.18194732819461E-14));
#1283=DIRECTION('',(-0.707106781186703,-0.707106781186392,-3.18194732819461E-14));
#1284=DIRECTION('',(0.,-4.2632564145606E-14,1.));
#1285=DIRECTION('center_axis',(-1.35921330818897E-14,1.,4.2632564145606E-14));
#1286=DIRECTION('ref_axis',(-1.,-1.35921330818897E-14,-5.40216018503792E-17));
#1287=DIRECTION('',(-1.,-1.35921330818897E-14,-5.40216018503792E-17));
#1288=DIRECTION('',(0.,-4.2632564145606E-14,1.));
#1289=DIRECTION('center_axis',(0.707102794738636,-0.707110767611985,-3.01459451582666E-14));
#1290=DIRECTION('ref_axis',(0.707110767611985,0.707102794738636,3.18192943243755E-14));
#1291=DIRECTION('',(0.707110767611985,0.707102794738636,3.18192943243755E-14));
#1292=DIRECTION('',(0.,-4.2632564145606E-14,1.));
#1293=DIRECTION('center_axis',(-0.707092792928758,0.707120769167621,3.01463715502289E-14));
#1294=DIRECTION('ref_axis',(-0.707120769167621,-0.707092792928758,-3.1818845328239E-14));
#1295=DIRECTION('',(-0.707120769167621,-0.707092792928758,-3.1818845328239E-14));
#1296=DIRECTION('center_axis',(-5.40216018502614E-17,-4.49455090610567E-14,
1.));
#1297=DIRECTION('ref_axis',(-1.,6.14456493235404E-32,-5.40216018502614E-17));
#1298=DIRECTION('center_axis',(-5.40216018502614E-17,-4.49455090610567E-14,
1.));
#1299=DIRECTION('ref_axis',(-1.,6.14456493235404E-32,-5.40216018502614E-17));
#1300=DIRECTION('',(0.,0.,1.));
#1301=DIRECTION('',(1.,0.,0.));
#1302=DIRECTION('',(0.,0.,1.));
#1303=DIRECTION('',(1.,0.,0.));
#1304=CARTESIAN_POINT('',(0.,0.,0.));
#1305=CARTESIAN_POINT('',(0.,0.,0.));
#1306=CARTESIAN_POINT('',(0.,0.,0.));
#1307=CARTESIAN_POINT('Origin',(-0.996592559388967,379.497728023498,205.359111912806));
#1308=CARTESIAN_POINT('',(0.753407440611036,379.497728023498,205.359111912806));
#1309=CARTESIAN_POINT('Origin',(-0.996592559388967,379.497728023498,205.35911191282));
#1310=CARTESIAN_POINT('',(0.753407440611036,379.497728023498,200.35911191282));
#1311=CARTESIAN_POINT('',(0.753407440611036,379.497728023498,205.359111912806));
#1312=CARTESIAN_POINT('Origin',(-0.996592559388967,379.497728023498,200.35911191282));
#1313=CARTESIAN_POINT('Origin',(-17.996592559389,417.997728023498,205.359111912806));
#1314=CARTESIAN_POINT('',(-16.246592559389,417.997728023498,205.359111912806));
#1315=CARTESIAN_POINT('Origin',(-17.996592559389,417.997728023498,205.35911191282));
#1316=CARTESIAN_POINT('',(-16.246592559389,417.997728023498,200.359111912806));
#1317=CARTESIAN_POINT('',(-16.246592559389,417.997728023498,205.359111912806));
#1318=CARTESIAN_POINT('Origin',(-17.996592559389,417.997728023498,200.35911191282));
#1319=CARTESIAN_POINT('Origin',(16.003407440611,417.997728023498,205.359111912806));
#1320=CARTESIAN_POINT('',(17.753407440611,417.997728023498,205.359111912806));
#1321=CARTESIAN_POINT('Origin',(16.003407440611,417.997728023498,205.35911191282));
#1322=CARTESIAN_POINT('',(17.753407440611,417.997728023498,200.359111912806));
#1323=CARTESIAN_POINT('',(17.753407440611,417.997728023498,205.359111912806));
#1324=CARTESIAN_POINT('Origin',(16.003407440611,417.997728023498,200.35911191282));
#1325=CARTESIAN_POINT('Origin',(-17.996592559389,383.997728023498,205.359111912806));
#1326=CARTESIAN_POINT('',(-16.246592559389,383.997728023498,205.359111912806));
#1327=CARTESIAN_POINT('Origin',(-17.996592559389,383.997728023498,205.35911191282));
#1328=CARTESIAN_POINT('',(-16.246592559389,383.997728023498,200.359111912806));
#1329=CARTESIAN_POINT('',(-16.246592559389,383.997728023498,205.359111912806));
#1330=CARTESIAN_POINT('Origin',(-17.996592559389,383.997728023498,200.35911191282));
#1331=CARTESIAN_POINT('Origin',(16.003407440611,383.997728023498,205.359111912806));
#1332=CARTESIAN_POINT('',(17.753407440611,383.997728023498,205.359111912806));
#1333=CARTESIAN_POINT('Origin',(16.003407440611,383.997728023498,205.35911191282));
#1334=CARTESIAN_POINT('',(17.753407440611,383.997728023498,200.359111912806));
#1335=CARTESIAN_POINT('',(17.753407440611,383.997728023498,205.359111912806));
#1336=CARTESIAN_POINT('Origin',(16.003407440611,383.997728023498,200.35911191282));
#1337=CARTESIAN_POINT('Origin',(58.2913882162252,439.94720013459,205.359111912806));
#1338=CARTESIAN_POINT('',(60.1163882162252,439.94720013459,205.359111912806));
#1339=CARTESIAN_POINT('Origin',(58.2913882162252,439.94720013459,205.35911191282));
#1340=CARTESIAN_POINT('',(60.1163882162252,439.94720013459,203.359111912806));
#1341=CARTESIAN_POINT('',(60.1163882162252,439.94720013459,205.359111912806));
#1342=CARTESIAN_POINT('Origin',(58.2913882162252,439.94720013459,203.359111912806));
#1343=CARTESIAN_POINT('Origin',(58.2913882162252,439.94720013459,203.359111912806));
#1344=CARTESIAN_POINT('',(59.2413882162252,439.94720013459,203.359111912806));
#1345=CARTESIAN_POINT('Origin',(58.2913882162252,439.94720013459,203.359111912806));
#1346=CARTESIAN_POINT('Origin',(-58.0745625971467,440.374829148248,205.359111912806));
#1347=CARTESIAN_POINT('',(-56.2495625971467,440.374829148248,205.359111912806));
#1348=CARTESIAN_POINT('Origin',(-58.0745625971467,440.374829148248,205.35911191282));
#1349=CARTESIAN_POINT('',(-56.2495625971467,440.374829148248,203.359111912806));
#1350=CARTESIAN_POINT('',(-56.2495625971467,440.374829148248,205.359111912806));
#1351=CARTESIAN_POINT('Origin',(-58.0745625971467,440.374829148248,203.359111912806));
#1352=CARTESIAN_POINT('Origin',(-58.0745625971467,440.374829148248,203.359111912806));
#1353=CARTESIAN_POINT('',(-57.1245625971467,440.374829148248,203.359111912806));
#1354=CARTESIAN_POINT('Origin',(-58.0745625971467,440.374829148248,203.359111912806));
#1355=CARTESIAN_POINT('Origin',(58.252278793101,172.852743538947,205.359111912806));
#1356=CARTESIAN_POINT('',(60.077278793101,172.852743538947,205.359111912806));
#1357=CARTESIAN_POINT('Origin',(58.252278793101,172.852743538947,205.35911191282));
#1358=CARTESIAN_POINT('',(60.077278793101,172.852743538947,203.359111912806));
#1359=CARTESIAN_POINT('',(60.077278793101,172.852743538947,205.359111912806));
#1360=CARTESIAN_POINT('Origin',(58.252278793101,172.852743538947,203.359111912806));
#1361=CARTESIAN_POINT('Origin',(58.252278793101,172.852743538947,203.359111912806));
#1362=CARTESIAN_POINT('',(59.202278793101,172.852743538947,203.359111912806));
#1363=CARTESIAN_POINT('Origin',(58.252278793101,172.852743538947,203.359111912806));
#1364=CARTESIAN_POINT('Origin',(-58.0745625971467,440.374829148248,205.359111912806));
#1365=CARTESIAN_POINT('',(-57.1245625971467,440.374829148248,200.359111912806));
#1366=CARTESIAN_POINT('Origin',(-58.0745625971467,440.374829148248,200.359111912806));
#1367=CARTESIAN_POINT('',(-57.1245625971467,440.374829148248,205.359111912806));
#1368=CARTESIAN_POINT('Origin',(58.2913882162252,439.94720013459,205.359111912806));
#1369=CARTESIAN_POINT('',(59.2413882162252,439.94720013459,200.359111912806));
#1370=CARTESIAN_POINT('Origin',(58.2913882162252,439.94720013459,200.359111912806));
#1371=CARTESIAN_POINT('',(59.2413882162252,439.94720013459,205.359111912806));
#1372=CARTESIAN_POINT('Origin',(58.252278793101,172.852743538947,205.359111912806));
#1373=CARTESIAN_POINT('',(59.202278793101,172.852743538947,200.359111912806));
#1374=CARTESIAN_POINT('Origin',(58.252278793101,172.852743538947,200.359111912806));
#1375=CARTESIAN_POINT('',(59.202278793101,172.852743538947,205.359111912806));
#1376=CARTESIAN_POINT('Origin',(-58.0358154401225,172.425396939216,205.359111912806));
#1377=CARTESIAN_POINT('',(-56.2108154401225,172.425396939216,205.359111912806));
#1378=CARTESIAN_POINT('Origin',(-58.0358154401225,172.425396939216,205.35911191282));
#1379=CARTESIAN_POINT('',(-56.2108154401225,172.425396939216,203.359111912806));
#1380=CARTESIAN_POINT('',(-56.2108154401225,172.425396939216,205.359111912806));
#1381=CARTESIAN_POINT('Origin',(-58.0358154401225,172.425396939216,203.359111912806));
#1382=CARTESIAN_POINT('Origin',(-58.0358154401225,172.425396939216,203.359111912806));
#1383=CARTESIAN_POINT('',(-57.0858154401225,172.425396939216,203.359111912806));
#1384=CARTESIAN_POINT('Origin',(-58.0358154401225,172.425396939216,203.359111912806));
#1385=CARTESIAN_POINT('Origin',(-58.0358154401225,172.425396939216,205.359111912806));
#1386=CARTESIAN_POINT('',(-57.0858154401225,172.425396939216,200.359111912806));
#1387=CARTESIAN_POINT('Origin',(-58.0358154401225,172.425396939216,200.359111912806));
#1388=CARTESIAN_POINT('',(-57.0858154401225,172.425396939216,205.359111912806));
#1389=CARTESIAN_POINT('Origin',(-15.9999998185664,352.002271754747,200.359111912806));
#1390=CARTESIAN_POINT('',(-17.7499998185664,352.002271754747,200.359111912806));
#1391=CARTESIAN_POINT('Origin',(-15.9999998185664,352.002271754747,200.35911191282));
#1392=CARTESIAN_POINT('',(-17.7499998185664,352.002271754747,195.359111912806));
#1393=CARTESIAN_POINT('',(-17.7499998185664,352.002271754747,200.359111912806));
#1394=CARTESIAN_POINT('Origin',(-15.9999998185664,352.002271754747,195.359111912806));
#1395=CARTESIAN_POINT('Origin',(-15.9999998185664,352.002271754747,200.359111912806));
#1396=CARTESIAN_POINT('',(-18.7499998185664,352.002271754747,195.359111912806));
#1397=CARTESIAN_POINT('Origin',(-15.9999998185664,352.002271754747,195.359111912806));
#1398=CARTESIAN_POINT('',(-18.7499998185664,352.002271754747,200.359111912806));
#1399=CARTESIAN_POINT('',(-18.7499998185664,352.002271754747,200.359111912806));
#1400=CARTESIAN_POINT('Origin',(-15.9999998185664,352.002271754747,200.35911191282));
#1401=CARTESIAN_POINT('Origin',(-15.9999998185664,352.002271754747,195.359111912806));
#1402=CARTESIAN_POINT('Origin',(0.103587790346635,306.400383960601,200.35911191282));
#1403=CARTESIAN_POINT('',(62.8394126567101,449.068159709844,200.359111912826));
#1404=CARTESIAN_POINT('',(58.6944379265163,444.923348969747,200.359111912826));
#1405=CARTESIAN_POINT('',(62.8394126567101,449.068159709844,200.359111912826));
#1406=CARTESIAN_POINT('',(66.9841687356375,444.069015747221,200.359111912826));
#1407=CARTESIAN_POINT('',(62.8394126567101,449.068159709844,200.359111912826));
#1408=CARTESIAN_POINT('',(66.9450756542877,168.73346468864,200.359111912814));
#1409=CARTESIAN_POINT('',(66.9841687356375,444.069015747221,200.359111912826));
#1410=CARTESIAN_POINT('',(62.7988997411647,163.732608211357,200.359111912814));
#1411=CARTESIAN_POINT('',(66.9450756542877,168.73346468864,200.359111912814));
#1412=CARTESIAN_POINT('',(-62.582542720996,163.732608211359,200.359111912814));
#1413=CARTESIAN_POINT('',(62.7988997411647,163.732608211357,200.359111912814));
#1414=CARTESIAN_POINT('',(-66.7376599873592,167.887725477721,200.359111912814));
#1415=CARTESIAN_POINT('',(-62.582542720996,163.732608211359,200.359111912814));
#1416=CARTESIAN_POINT('',(-66.7769931549442,444.914222191441,200.359111912826));
#1417=CARTESIAN_POINT('',(-66.7376599873592,167.887725477721,200.359111912814));
#1418=CARTESIAN_POINT('',(-62.623055636541,449.068159709842,200.359111912826));
#1419=CARTESIAN_POINT('',(-66.7769931549442,444.914222191441,200.359111912826));
#1420=CARTESIAN_POINT('',(62.8392954010504,449.068159709844,200.359111912826));
#1421=CARTESIAN_POINT('',(-62.623055636541,449.068159709842,200.359111912826));
#1422=CARTESIAN_POINT('',(58.6944379265163,444.923348969747,200.359111912826));
#1423=CARTESIAN_POINT('',(13.2534074406112,373.997728023498,200.359111912806));
#1424=CARTESIAN_POINT('Origin',(16.0034074406112,373.997728023498,200.35911191282));
#1425=CARTESIAN_POINT('',(-18.7499998185664,374.002271976499,200.359111912806));
#1426=CARTESIAN_POINT('Origin',(-15.9999998185664,374.002271976499,200.35911191282));
#1427=CARTESIAN_POINT('',(13.2502838055495,351.99772824525,200.359111912806));
#1428=CARTESIAN_POINT('Origin',(16.0002838055495,351.99772824525,200.35911191282));
#1429=CARTESIAN_POINT('Origin',(16.0034074406112,373.997728023498,200.359111912806));
#1430=CARTESIAN_POINT('',(14.2534074406112,373.997728023498,200.359111912806));
#1431=CARTESIAN_POINT('Origin',(16.0034074406112,373.997728023498,200.35911191282));
#1432=CARTESIAN_POINT('',(14.2534074406112,373.997728023498,195.359111912806));
#1433=CARTESIAN_POINT('',(14.2534074406112,373.997728023498,200.359111912806));
#1434=CARTESIAN_POINT('Origin',(16.0034074406112,373.997728023498,195.359111912806));
#1435=CARTESIAN_POINT('Origin',(16.0034074406112,373.997728023498,200.359111912806));
#1436=CARTESIAN_POINT('',(13.2534074406112,373.997728023498,195.359111912806));
#1437=CARTESIAN_POINT('Origin',(16.0034074406112,373.997728023498,195.359111912806));
#1438=CARTESIAN_POINT('',(13.2534074406112,373.997728023498,200.359111912806));
#1439=CARTESIAN_POINT('Origin',(16.0034074406112,373.997728023498,195.359111912806));
#1440=CARTESIAN_POINT('Origin',(0.103587790346635,306.400383960601,200.35911191282));
#1441=CARTESIAN_POINT('Origin',(16.0002838055495,351.99772824525,200.359111912806));
#1442=CARTESIAN_POINT('',(14.2502838055495,351.99772824525,200.359111912806));
#1443=CARTESIAN_POINT('Origin',(16.0002838055495,351.99772824525,200.35911191282));
#1444=CARTESIAN_POINT('',(14.2502838055495,351.99772824525,195.359111912806));
#1445=CARTESIAN_POINT('',(14.2502838055495,351.99772824525,200.359111912806));
#1446=CARTESIAN_POINT('Origin',(16.0002838055495,351.99772824525,195.359111912806));
#1447=CARTESIAN_POINT('Origin',(16.0002838055495,351.99772824525,200.359111912806));
#1448=CARTESIAN_POINT('',(13.2502838055495,351.99772824525,195.359111912806));
#1449=CARTESIAN_POINT('Origin',(16.0002838055495,351.99772824525,195.359111912806));
#1450=CARTESIAN_POINT('',(13.2502838055495,351.99772824525,200.359111912806));
#1451=CARTESIAN_POINT('Origin',(16.0002838055495,351.99772824525,195.359111912806));
#1452=CARTESIAN_POINT('Origin',(0.103587790346635,306.400383960601,200.35911191282));
#1453=CARTESIAN_POINT('Origin',(-15.9999998185664,374.002271976499,200.359111912806));
#1454=CARTESIAN_POINT('',(-17.7499998185664,374.002271976499,200.359111912806));
#1455=CARTESIAN_POINT('Origin',(-15.9999998185664,374.002271976499,200.35911191282));
#1456=CARTESIAN_POINT('',(-17.7499998185664,374.002271976499,195.359111912806));
#1457=CARTESIAN_POINT('',(-17.7499998185664,374.002271976499,200.359111912806));
#1458=CARTESIAN_POINT('Origin',(-15.9999998185664,374.002271976499,195.359111912806));
#1459=CARTESIAN_POINT('Origin',(-15.9999998185664,374.002271976499,200.359111912806));
#1460=CARTESIAN_POINT('',(-18.7499998185664,374.002271976499,195.359111912806));
#1461=CARTESIAN_POINT('Origin',(-15.9999998185664,374.002271976499,195.359111912806));
#1462=CARTESIAN_POINT('',(-18.7499998185664,374.002271976499,200.359111912806));
#1463=CARTESIAN_POINT('Origin',(-15.9999998185664,374.002271976499,195.359111912806));
#1464=CARTESIAN_POINT('Origin',(0.103587790346635,306.400383960601,200.35911191282));
#1465=CARTESIAN_POINT('Origin',(-78.5991317000569,433.064413974018,205.359111912806));
#1466=CARTESIAN_POINT('',(-78.5991317000569,433.064413974018,200.359552400067));
#1467=CARTESIAN_POINT('',(-66.7769892268674,444.886556447204,200.359552400067));
#1468=CARTESIAN_POINT('',(-91.0516554499127,420.611890224166,200.359552400066));
#1469=CARTESIAN_POINT('',(-78.5991317000569,433.064413974018,205.359111912806));
#1470=CARTESIAN_POINT('',(-78.5991317000569,433.064413974018,205.359111912806));
#1471=CARTESIAN_POINT('',(-66.7769892268674,444.886556447204,205.359111912806));
#1472=CARTESIAN_POINT('',(-62.6132890288861,449.050256645184,205.359111912806));
#1473=CARTESIAN_POINT('',(-66.7769892268674,444.886556447204,202.859111912816));
#1474=CARTESIAN_POINT('Origin',(-78.5991317001013,179.741060733462,205.359111912806));
#1475=CARTESIAN_POINT('',(-78.5991317001013,179.741060733462,200.359552400055));
#1476=CARTESIAN_POINT('',(-78.5991317000904,242.020845765213,200.359552400058));
#1477=CARTESIAN_POINT('',(-78.5991317001013,179.741060733462,205.359111912806));
#1478=CARTESIAN_POINT('',(-78.5991317001013,179.741060733462,205.359111912806));
#1479=CARTESIAN_POINT('',(-78.5991317000569,433.064413974018,205.359111912806));
#1480=CARTESIAN_POINT('Origin',(-62.5727761133411,163.714705146701,205.359111912806));
#1481=CARTESIAN_POINT('',(-62.5727761133411,163.714705146701,200.359552400054));
#1482=CARTESIAN_POINT('',(-81.9874243781782,183.129353411539,200.359552400055));
#1483=CARTESIAN_POINT('',(-62.5727761133411,163.714705146701,205.359111912806));
#1484=CARTESIAN_POINT('',(-62.5727761133411,163.714705146701,205.359111912806));
#1485=CARTESIAN_POINT('',(-78.5991317001013,179.741060733462,205.359111912806));
#1486=CARTESIAN_POINT('Origin',(62.8086663488195,163.714705146699,205.359111912806));
#1487=CARTESIAN_POINT('',(62.8086663488195,163.714705146699,200.359552400054));
#1488=CARTESIAN_POINT('',(31.5816114131899,163.714705146699,200.359552400054));
#1489=CARTESIAN_POINT('',(62.8086663488195,163.714705146699,205.359111912806));
#1490=CARTESIAN_POINT('',(62.8086663488195,163.714705146699,205.359111912806));
#1491=CARTESIAN_POINT('',(-62.5727761133411,163.714705146701,205.359111912806));
#1492=CARTESIAN_POINT('Origin',(79.2733699831451,183.573394585237,205.359111912806));
#1493=CARTESIAN_POINT('',(79.2733699831451,183.573394585237,200.359552400055));
#1494=CARTESIAN_POINT('',(92.8581198974792,199.958465075456,200.359552400056));
#1495=CARTESIAN_POINT('',(79.2733699831451,183.573394585237,205.359111912806));
#1496=CARTESIAN_POINT('',(79.2733699831451,183.573394585237,205.359111912806));
#1497=CARTESIAN_POINT('',(62.8086663488195,163.714705146699,205.359111912806));
#1498=CARTESIAN_POINT('Origin',(79.3082446552264,429.198367701109,205.359111912806));
#1499=CARTESIAN_POINT('',(79.3082446552264,429.198367701109,200.359552400066));
#1500=CARTESIAN_POINT('',(79.2993771560788,366.743895450997,200.359552400064));
#1501=CARTESIAN_POINT('',(79.3082446552264,429.198367701109,205.359111912806));
#1502=CARTESIAN_POINT('',(79.3082446552264,429.198367701109,205.359111912806));
#1503=CARTESIAN_POINT('',(79.2733699831451,183.573394585237,205.359111912806));
#1504=CARTESIAN_POINT('Origin',(66.9841678663939,444.062893598552,205.359111912806));
#1505=CARTESIAN_POINT('',(66.9841678663939,444.062893598552,200.359552400067));
#1506=CARTESIAN_POINT('',(87.7484298419792,419.018347449905,200.359552400066));
#1507=CARTESIAN_POINT('',(66.9841678663939,444.062893598552,205.359111912806));
#1508=CARTESIAN_POINT('',(66.9841678663939,444.062893598552,202.85911191281));
#1509=CARTESIAN_POINT('',(79.3082446552264,429.198367701109,205.359111912806));
#1510=CARTESIAN_POINT('Origin',(0.354556477562538,304.300630796951,200.359552400061));
#1511=CARTESIAN_POINT('',(-66.7376599873592,167.887725477721,200.359552400055));
#1512=CARTESIAN_POINT('',(-66.7670100796502,374.602662128348,200.359552400064));
#1513=CARTESIAN_POINT('',(-62.582542720996,163.732608211359,200.359552400054));
#1514=CARTESIAN_POINT('',(-84.0678322009305,185.217897691286,200.359552400055));
#1515=CARTESIAN_POINT('',(62.7988997411647,163.732608211357,200.359552400054));
#1516=CARTESIAN_POINT('',(-31.1139931217179,163.732608211359,200.359552400054));
#1517=CARTESIAN_POINT('',(66.9450756542877,168.73346468864,200.359552400055));
#1518=CARTESIAN_POINT('',(84.6135924977802,190.044117866934,200.359552400056));
#1519=CARTESIAN_POINT('',(66.9546991273746,236.512319001818,200.359552400058));
#1520=CARTESIAN_POINT('Origin',(66.9841687356375,444.069015747221,200.359111912826));
#1521=CARTESIAN_POINT('',(62.8394126567101,449.068159709844,205.359111912826));
#1522=CARTESIAN_POINT('',(62.8394126567101,449.068159709844,200.359111912826));
#1523=CARTESIAN_POINT('',(66.9841687356375,444.069015747221,205.359111912826));
#1524=CARTESIAN_POINT('',(62.8394126567101,449.068159709844,205.359111912826));
#1525=CARTESIAN_POINT('',(66.9841687356375,444.069015747221,200.359111912826));
#1526=CARTESIAN_POINT('Origin',(66.9450756542877,168.73346468864,200.359111912814));
#1527=CARTESIAN_POINT('',(66.9450756542877,168.73346468864,200.359111912814));
#1528=CARTESIAN_POINT('',(66.9841687356375,444.069015747221,205.359111912826));
#1529=CARTESIAN_POINT('Origin',(62.7988997411647,163.732608211357,200.359111912814));
#1530=CARTESIAN_POINT('',(62.7988997411647,163.732608211357,200.359111912814));
#1531=CARTESIAN_POINT('Origin',(-62.582542720996,163.732608211359,200.359111912814));
#1532=CARTESIAN_POINT('',(-62.582542720996,163.732608211359,200.359111912814));
#1533=CARTESIAN_POINT('Origin',(-66.7376599873592,167.887725477721,200.359111912814));
#1534=CARTESIAN_POINT('',(-66.7376599873592,167.887725477721,200.359111912814));
#1535=CARTESIAN_POINT('Origin',(-66.7769931549442,444.914222191441,200.359111912826));
#1536=CARTESIAN_POINT('',(-66.7769931549442,444.914222191441,205.359111912826));
#1537=CARTESIAN_POINT('',(-66.7376599873592,167.887725477721,205.359111912814));
#1538=CARTESIAN_POINT('',(-66.7769931549442,444.914222191441,200.359111912826));
#1539=CARTESIAN_POINT('Origin',(-62.623055636541,449.068159709842,200.359111912826));
#1540=CARTESIAN_POINT('',(-62.623055636541,449.068159709842,205.359111912826));
#1541=CARTESIAN_POINT('',(-66.7769931549442,444.914222191441,205.359111912826));
#1542=CARTESIAN_POINT('',(-62.623055636541,449.068159709842,200.359111912826));
#1543=CARTESIAN_POINT('Origin',(62.8392954010504,449.068159709844,200.359111912826));
#1544=CARTESIAN_POINT('',(62.8392954010504,449.068159709844,205.359111912826));
#1545=CARTESIAN_POINT('',(-62.623055636541,449.068159709842,205.359111912826));
#1546=CARTESIAN_POINT('',(62.8392954010504,449.068159709844,200.359111912826));
#1547=CARTESIAN_POINT('Origin',(58.6944379265163,444.923348969747,200.359111912826));
#1548=CARTESIAN_POINT('',(58.6944379265163,444.923348969746,205.359111912826));
#1549=CARTESIAN_POINT('',(58.6944379265163,444.923348969746,205.359111912826));
#1550=CARTESIAN_POINT('',(58.6944379265163,444.923348969747,200.359111912826));
#1551=CARTESIAN_POINT('Origin',(62.8394126567101,449.068159709844,200.359111912826));
#1552=CARTESIAN_POINT('',(62.8394126567101,449.068159709844,205.359111912826));
#1553=CARTESIAN_POINT('Origin',(0.103587790346635,306.4003839606,205.35911191282));
#1554=CARTESIAN_POINT('Origin',(0.103587790346635,306.400383960601,200.35911191282));
#1555=CARTESIAN_POINT('',(0.,-1900.,-100.));
#1556=CARTESIAN_POINT('',(0.,0.,0.));
#1557=UNCERTAINTY_MEASURE_WITH_UNIT(LENGTH_MEASURE(0.01),#1565,
'DISTANCE_ACCURACY_VALUE',
'Maximum model space distance between geometric entities at asserted c
onnectivities');
#1558=UNCERTAINTY_MEASURE_WITH_UNIT(LENGTH_MEASURE(0.01),#1565,
'DISTANCE_ACCURACY_VALUE',
'Maximum model space distance between geometric entities at asserted c
onnectivities');
#1559=UNCERTAINTY_MEASURE_WITH_UNIT(LENGTH_MEASURE(0.01),#1565,
'DISTANCE_ACCURACY_VALUE',
'Maximum model space distance between geometric entities at asserted c
onnectivities');
#1560=UNCERTAINTY_MEASURE_WITH_UNIT(LENGTH_MEASURE(0.01),#1565,
'DISTANCE_ACCURACY_VALUE',
'Maximum model space distance between geometric entities at asserted c
onnectivities');
#1561=(
GEOMETRIC_REPRESENTATION_CONTEXT(3)
GLOBAL_UNCERTAINTY_ASSIGNED_CONTEXT((#1557))
GLOBAL_UNIT_ASSIGNED_CONTEXT((#1565,#1567,#1568))
REPRESENTATION_CONTEXT('','3D')
);
#1562=(
GEOMETRIC_REPRESENTATION_CONTEXT(3)
GLOBAL_UNCERTAINTY_ASSIGNED_CONTEXT((#1558))
GLOBAL_UNIT_ASSIGNED_CONTEXT((#1565,#1567,#1568))
REPRESENTATION_CONTEXT('','3D')
);
#1563=(
GEOMETRIC_REPRESENTATION_CONTEXT(3)
GLOBAL_UNCERTAINTY_ASSIGNED_CONTEXT((#1559))
GLOBAL_UNIT_ASSIGNED_CONTEXT((#1565,#1567,#1568))
REPRESENTATION_CONTEXT('','3D')
);
#1564=(
GEOMETRIC_REPRESENTATION_CONTEXT(3)
GLOBAL_UNCERTAINTY_ASSIGNED_CONTEXT((#1560))
GLOBAL_UNIT_ASSIGNED_CONTEXT((#1565,#1567,#1568))
REPRESENTATION_CONTEXT('','3D')
);
#1565=(
LENGTH_UNIT()
NAMED_UNIT(*)
SI_UNIT(.MILLI.,.METRE.)
);
#1566=(
LENGTH_UNIT()
NAMED_UNIT(*)
SI_UNIT($,.METRE.)
);
#1567=(
NAMED_UNIT(*)
PLANE_ANGLE_UNIT()
SI_UNIT($,.RADIAN.)
);
#1568=(
NAMED_UNIT(*)
SI_UNIT($,.STERADIAN.)
SOLID_ANGLE_UNIT()
);
#1569=SHAPE_DEFINITION_REPRESENTATION(#1572,#1577);
#1570=SHAPE_DEFINITION_REPRESENTATION(#1573,#1578);
#1571=SHAPE_DEFINITION_REPRESENTATION(#1574,#1579);
#1572=PRODUCT_DEFINITION_SHAPE('',$,#1581);
#1573=PRODUCT_DEFINITION_SHAPE('',$,#1582);
#1574=PRODUCT_DEFINITION_SHAPE('',$,#1583);
#1575=PRODUCT_DEFINITION_SHAPE($,$,#17);
#1576=PRODUCT_DEFINITION_SHAPE($,$,#18);
#1577=SHAPE_REPRESENTATION('',(#929,#1027,#1028),#1561);
#1578=SHAPE_REPRESENTATION('',(#930),#1562);
#1579=SHAPE_REPRESENTATION('',(#931),#1563);
#1580=PRODUCT_DEFINITION_CONTEXT('part definition',#1591,'design');
#1581=PRODUCT_DEFINITION('Robot back','PP Test Sensor Box v9',#1584,#1580);
#1582=PRODUCT_DEFINITION('Base_Plate_v2','Base_Plate_v2 v9',#1585,#1580);
#1583=PRODUCT_DEFINITION('Robot back_1','Back_SensorBoxLid v1',#1586,#1580);
#1584=PRODUCT_DEFINITION_FORMATION('',$,#1593);
#1585=PRODUCT_DEFINITION_FORMATION('',$,#1594);
#1586=PRODUCT_DEFINITION_FORMATION('',$,#1595);
#1587=PRODUCT_RELATED_PRODUCT_CATEGORY('PP Test Sensor Box v9',
'PP Test Sensor Box v9',(#1593));
#1588=PRODUCT_RELATED_PRODUCT_CATEGORY('Base_Plate_v2 v9',
'Base_Plate_v2 v9',(#1594));
#1589=PRODUCT_RELATED_PRODUCT_CATEGORY('Back_SensorBoxLid v1',
'Back_SensorBoxLid v1',(#1595));
#1590=APPLICATION_PROTOCOL_DEFINITION('international standard',
'automotive_design',2009,#1591);
#1591=APPLICATION_CONTEXT(
'Core Data for Automotive Mechanical Design Process');
#1592=PRODUCT_CONTEXT('part definition',#1591,'mechanical');
#1593=PRODUCT('Robot back','PP Test Sensor Box v9','STEP AP203',(#1592));
#1594=PRODUCT('Base_Plate_v2','Base_Plate_v2 v9','STEP AP203',(#1592));
#1595=PRODUCT('Robot back_1','Back_SensorBoxLid v1','STEP AP203',(#1592));
#1596=PRESENTATION_STYLE_ASSIGNMENT((#1598));
#1597=PRESENTATION_STYLE_ASSIGNMENT((#1599));
#1598=SURFACE_STYLE_USAGE(.BOTH.,#1600);
#1599=SURFACE_STYLE_USAGE(.BOTH.,#1601);
#1600=SURFACE_SIDE_STYLE('',(#1602));
#1601=SURFACE_SIDE_STYLE('',(#1603));
#1602=SURFACE_STYLE_FILL_AREA(#1604);
#1603=SURFACE_STYLE_FILL_AREA(#1605);
#1604=FILL_AREA_STYLE('Steel - Satin',(#1606));
#1605=FILL_AREA_STYLE('Opaque(160,160,160)',(#1607));
#1606=FILL_AREA_STYLE_COLOUR('Steel - Satin',#1608);
#1607=FILL_AREA_STYLE_COLOUR('Opaque(160,160,160)',#1609);
#1608=COLOUR_RGB('Steel - Satin',0.627450980392157,0.627450980392157,0.627450980392157);
#1609=COLOUR_RGB('Opaque(160,160,160)',0.627450980392157,0.627450980392157,
0.627450980392157);
ENDSEC;
END-ISO-10303-21;
